<?xml version="1.0" encoding="utf-8"?>
<!-- Generator: Adobe Illustrator 16.0.0, SVG Export Plug-In . SVG Version: 6.00 Build 0)  -->
<!DOCTYPE svg PUBLIC "-//W3C//DTD SVG 1.1//EN" "http://www.w3.org/Graphics/SVG/1.1/DTD/svg11.dtd">
<svg version="1.1" id="Layer_2" xmlns="http://www.w3.org/2000/svg" xmlns:xlink="http://www.w3.org/1999/xlink" x="0px" y="0px"
	 width="170px" height="154.602px" viewBox="0 0 170 154.602" enable-background="new 0 0 170 154.602" xml:space="preserve">
<path fill="#F7F7F7" d="M166.363,141.72V27.463h-36.352h-1.158h-0.063h-1.227h-2.138c-0.196,0-0.323,0-0.536,0l-0.307-0.015h-0.757
	c-0.418-2.079-1.576-3.934-2.104-4.662c-0.457-0.708-1.258-1.674-2.695-3.083c-0.609-0.586-1.342-1.198-2.168-1.813
	c-1.711-1.275-4.822-2.331-7.326-2.402c-1.256,0-2.696,0.274-4.301,0.688c0.008-0.028,0.016-0.057,0.021-0.087
	c0.03-0.114,0.053-0.231,0.073-0.349c0.135-0.558,0.553-1.961,0.651-2.279c0.129-0.435,0.267-1.228,0.267-2.237
	c0.005-0.437,0.01-1.252-0.312-2.188c-0.361-1.069-1.619-3.571-5.477-3.706c-1.509-0.108-3.053,0.503-4.075,1.59
	c-0.946,0.362-1.684,0.846-2.228,1.435c-0.202-0.342-0.442-0.663-0.746-0.935c0.551-1.307,0.353-2.819-0.535-3.945
	c-0.896-1.131-2.332-1.674-3.736-1.434C88.46,0.803,87.165,0.015,85.738,0c-0.016,0-0.025,0-0.039,0
	c-1.43,0-2.741,0.781-3.427,2.021c-1.387-0.244-2.818,0.278-3.721,1.389c-0.8,0.983-1.027,2.273-0.709,3.47
	c-0.752-1.08-1.979-1.796-3.336-1.851c-0.232-0.015-0.472,0-0.704,0.034c-0.212,0.029-0.416,0.073-0.617,0.132
	c-0.852-0.379-1.867-0.487-2.749-0.231c-0.755,0.217-3.219,1.234-3.28,5.181c-0.015,0.771,0.077,1.443,0.232,2.026
	c-0.146,0.522-0.252,1.117-0.309,1.79c-0.309,0.313-0.632,0.705-1.071,1.246c-0.295,0.366-0.987,1.224-1.745,1.961
	c-0.576,0.552-1.555,1.252-2.701,1.928c-4.297,2.554-5.399,6.373-5.669,7.879c-0.023,0.133-0.046,0.293-0.064,0.473h-1.013
	l-0.306,0.015c-0.212,0-0.336,0-0.536,0c-0.748,0-1.372,0-2.137,0c-0.013,0-0.023,0-0.036,0c-0.663,0-1.083,0-1.188,0
	c-0.039,0-0.059,0-0.059,0c-0.104,0-0.477,0-1.161,0H13.312h-0.306H8.421c-2.829,0-4.9,2.386-4.9,5.212l0.011,3.344h0.004v114.563
	h153.055h0.304h4.582c2.826,0,4.904-2.388,4.904-5.216L166.363,141.72z"/>
<g>
	<g>
		<g>
			<path d="M115.367,49.586c-0.875,0.084-0.916,0.082-2.146,0.599c-0.063,0.023,1.512,0.167,2.102,0.101
				c0.637-0.073,1.563-0.257,1.808-0.553C117.323,49.495,115.898,49.531,115.367,49.586z"/>
			<path d="M115.26,47.886c0.631-1.312,0.631-1.353,0.789-2.317c0.1-0.598,0.27-2.2,0.02-2.016
				c-0.315,0.229-0.582,1.246-0.711,1.946C115.232,46.157,115.229,47.942,115.26,47.886z"/>
			<path d="M90.803,10.344l-0.201-0.152l-2.184-1.648l1.266-2.414L89.8,5.904l-0.241,0.06l-2.641,0.682l-1.117-2.497l-0.1-0.229
				l-0.104,0.229l-1.12,2.488L81.84,5.945l-0.248-0.065l0.112,0.228l1.252,2.426l-2.18,1.633l-0.205,0.15l0.247,0.054l2.67,0.535
				l-0.081,2.724l-0.011,0.252l0.199-0.163l2.086-1.754l2.084,1.77l0.188,0.16l-0.005-0.253l-0.071-2.729l2.678-0.521L90.803,10.344
				z M85.684,9.157l1.959,1.569l0.002,0.099l0.067,2.565l0,0L85.684,9.157l-2.045,4.223l0.087-2.564V10.72L85.684,9.157
				l-4.567,1.036l2.053-1.534l0.079-0.063L85.684,9.157l-3.651-2.933l2.478,0.657l0.093,0.021L85.684,9.157l0.019-4.685l0,0
				l1.041,2.347l0.008,0.01L85.684,9.157l1.18-2.271l0.012-0.002l2.486-0.636L85.684,9.157l2.459-0.542l0.071,0.052l2.048,1.551
				L85.684,9.157z"/>
			<path d="M90.195,14.923c0,0.344-0.313,0.62-0.701,0.62H81.7c-0.388,0-0.704-0.275-0.704-0.62s0.316-0.622,0.704-0.622h7.794
				C89.882,14.301,90.195,14.578,90.195,14.923z M88.611,14.596l0.705,0.605c0,0,0.311,0.05,0.425-0.082
				c0.163-0.184-0.03-0.509-0.306-0.524C89.195,14.594,88.611,14.596,88.611,14.596z M83.287,15.23h1.143l-0.618-0.621l-1.145-0.006
				L83.287,15.23z M86.307,15.227h1.152l-0.622-0.631h-1.147L86.307,15.227z"/>
			<path d="M77.521,20.024v0.151h16.85v-0.151l-0.156,0.02c0,0,0.182,1.504,0.371,3.473c0.178,1.964,0.364,4.396,0.364,6.225
				c0,0.756-0.033,1.412-0.11,1.882c-0.219,1.403-0.645,3.295-1.896,4.867c-1.254,1.577-3.314,2.854-6.865,3.023l0.005,0.149
				l0.011-0.149h-0.011c-0.086,0-2.03-0.014-4.105-1.027c-2.071-1.018-4.28-3.009-4.948-7.025l-0.148,0.025l0.148-0.019
				c0,0-0.025-0.173-0.041-0.541c-0.025-0.366-0.045-0.919-0.045-1.673c0-1.847,0.127-4.878,0.724-9.211L77.521,20.024v0.151V20.024
				l-0.156-0.024c-0.592,4.352-0.729,7.395-0.729,9.255c0,1.517,0.091,2.245,0.091,2.252v0.003v0.001
				c0.679,4.114,2.974,6.208,5.119,7.251c2.14,1.044,4.126,1.054,4.235,1.054v-0.088l-0.011,0.088h0.011v-0.088l-0.011,0.088h0.011
				h0.011c3.608-0.167,5.784-1.488,7.086-3.134c1.301-1.641,1.743-3.591,1.965-5.009c0.08-0.501,0.11-1.166,0.11-1.932
				c0-3.696-0.737-9.733-0.737-9.736L94.5,19.876h-0.13H77.52h-0.133L77.364,20L77.521,20.024"/>
			<path d="M83.796,33.804c0.107,0.171,0.612,0.853,0.918,0.866l0.107-0.041l0.005-0.014l0.005-0.009l0.033-0.249v-0.015
				l-0.003-0.01c-0.112-0.218-0.545-0.496-0.724-0.674c-0.148-0.152-0.301-0.308-0.446-0.464l-0.079-0.079l0.013,0.106
				C83.644,33.448,83.697,33.632,83.796,33.804z M87.938,35.592h-0.002c-0.014-0.268-0.621-1.448-0.621-2.104l0.047-0.237
				c0.106,0.042,0.185,0.159,0.269,0.293c0.087,0.146,0.179,0.299,0.336,0.304v-0.036l0.039,0.001v-0.038
				c0-0.174-0.093-0.334-0.093-0.487c0-0.165-0.03-0.317-0.03-0.458v-0.004l-0.005-0.007c-0.074-0.194-0.141-0.421-0.32-0.563
				c-0.115-0.104-0.223-0.149-0.324-0.149c-0.369,0.015-0.489,0.604-0.498,1.042c0,0.153,0.02,0.289,0.057,0.383l0,0
				c0.057,0.866,0.684,1.554,0.684,2.456c-0.048,0.107-0.091,0.139-0.133,0.139c-0.143,0.01-0.377-0.398-0.406-0.531
				c-0.093-0.344-0.134-0.729-0.191-1.09c-0.085-0.579-0.191-1.103-0.451-1.617c-0.072-0.121-0.402-0.34-0.766-0.567
				c-0.357-0.229-0.74-0.449-0.877-0.532c-0.248-0.145-0.449-0.416-0.597-0.672l-0.191-0.422l-0.041-0.085l-0.03,0.092l-0.033,0.284
				c0,0.255,0.051,0.565,0.193,0.698l0,0c0.148,0.264,1.467,1.284,1.695,1.478l0.084,0.163c0.006,0.175-0.229,0.411-0.379,0.534
				l-0.158,0.231c0.006,0.117,0.094,0.181,0.1,0.316c-0.123,0.131-0.234,0.276-0.35,0.397l-0.084,0.172
				c0.005,0.121,0.1,0.178,0.115,0.295c-0.039,0.143-0.213,0.282-0.291,0.447l-0.139,0.232l0.126,0.142l0.091,0.087l-0.084,0.033
				l-0.181-0.061l-0.75-0.525l-0.064-0.046l0.002,0.079c0.021,0.376,0.536,0.796,0.696,1.065c0.192,0.327,0.303,0.404,0.743,0.399
				c0.611,0.005,0.841,0.005,1.025,0.005c0.183,0,0.313,0,0.73-0.005H86.9c0.154,0,0.289,0.007,0.414,0.007
				c0.261,0,0.492-0.03,0.752-0.23c0.095-0.074,0.137-0.196,0.137-0.331C88.204,36.246,88.005,35.812,87.938,35.592z M83.873,32.677
				l0.03-0.022L83.873,32.677c0.13,0.201,0.801,1.029,1.184,1.042l0.135-0.047l0.008-0.01l0.005-0.013l0.038-0.302v-0.01
				l-0.005-0.014c-0.143-0.263-0.701-0.596-0.936-0.813c-0.193-0.186-0.393-0.374-0.586-0.561l-0.071-0.071l0.01,0.098
				C83.674,32.243,83.75,32.467,83.873,32.677z M83.791,34.925l-0.03,0.015c0.082,0.136,0.474,0.658,0.724,0.68l0.087-0.04
				l0.004-0.009l0.006-0.011l0.03-0.191v-0.011l-0.005-0.015c-0.092-0.172-0.428-0.387-0.561-0.521
				c-0.118-0.114-0.237-0.235-0.354-0.352l-0.079-0.075l0.013,0.104c0.012,0.168,0.058,0.311,0.13,0.442L83.791,34.925z
				 M84.878,37.53h-0.077l0.054,0.059l0.212,0.259l0.011,0.016h0.018c0.867-0.002,1.366-0.002,2.405-0.002h0.022l0.008-0.021
				l0.154-0.255l0.031-0.057h-0.068C86.818,37.53,85.889,37.53,84.878,37.53z M85.299,38.151H85.22l0.051,0.063l0.155,0.193
				l0.018,0.011h0.011h0.081c0.371,0,0.612,0.014,0.965,0.014c0.192,0,0.418-0.005,0.709-0.016h0.022L87.24,38.4l0.111-0.189
				l0.033-0.06h-0.068C86.646,38.151,85.979,38.151,85.299,38.151z"/>
			<path d="M87.051,24.206l-0.066-0.042l-0.266-0.151l0.088-0.292l0.018-0.078l-0.073,0.024l-0.293,0.083l-0.151-0.269l-0.037-0.072
				l-0.039,0.072l-0.154,0.263l-0.286-0.082l-0.073-0.027l0.02,0.081l0.082,0.294l-0.271,0.146l-0.066,0.039l0.066,0.04l0.263,0.147
				l-0.078,0.29l-0.022,0.076l0.073-0.018l0.291-0.081l0.146,0.263l0.043,0.069l0.034-0.069l0.153-0.263l0.287,0.085l0.082,0.021
				l-0.022-0.077l-0.082-0.292l0.271-0.143L87.051,24.206z M85.788,21v0.09v0.044h0.043h0.065h0.047V21.09V21
				c0.106-0.029,0.168-0.103,0.166-0.192c-0.004-0.169-0.131-0.387-0.188-0.534l-0.043-0.098l-0.041,0.098
				c-0.062,0.153-0.19,0.379-0.194,0.547C85.639,20.903,85.695,20.971,85.788,21z M84.924,22.255v0.479v0.045h0.041h1.836h0.047
				v-0.045v-0.479v-0.046l0,0c0.086-0.236,0.354-0.519,0.358-0.836l-0.122-0.32c-0.1-0.133-0.242-0.19-0.41-0.194h-0.006
				c-0.207,0-0.377,0.135-0.494,0.273l-0.027,0.033l0.051,0.07l0.228-0.104l0.109-0.013c0.202,0.001,0.368,0.121,0.368,0.324
				l-0.006,0.075c-0.045,0.232-0.17,0.469-0.27,0.689h-0.076l0.021-0.063l-0.096-0.306l-0.043-0.116l-0.041,0.116l-0.105,0.311
				l0.02,0.06H86l0.016-0.063l-0.092-0.306l-0.041-0.11l-0.046,0.11l-0.103,0.311l0.021,0.06h-0.293l0.018-0.051l-0.091-0.305
				l-0.044-0.113l-0.046,0.113l-0.105,0.312l0.016,0.043h-0.066c-0.111-0.211-0.246-0.429-0.301-0.659l-0.01-0.094
				c0-0.192,0.168-0.319,0.377-0.324l0.076,0.008l0.239,0.094l0.047-0.073l-0.03-0.037c-0.115-0.123-0.285-0.241-0.475-0.241h-0.041
				c-0.166,0.008-0.306,0.075-0.395,0.21l-0.105,0.301c0.006,0.319,0.283,0.595,0.398,0.825V22.255L84.924,22.255z M84.859,26.676
				l0.033,0.073l0.041-0.073l0.156-0.264l0.288,0.085l0.076,0.028l-0.015-0.081l-0.085-0.295l0.268-0.144l0.074-0.041l-0.068-0.036
				l-0.273-0.153l0.089-0.29l0.021-0.078l-0.076,0.022l-0.294,0.078l-0.146-0.263l-0.041-0.072l-0.037,0.072l-0.151,0.263
				l-0.289-0.086L84.351,25.4l0.021,0.078l0.082,0.292l-0.266,0.146l-0.074,0.035l0.074,0.046l0.266,0.147l-0.087,0.288
				l-0.028,0.081l0.081-0.021l0.294-0.083L84.859,26.676z M88.014,25.674l-0.27-0.149l0.087-0.291l0.024-0.076l-0.082,0.021
				l-0.287,0.082l-0.152-0.268l-0.041-0.071l-0.038,0.071l-0.144,0.265l-0.291-0.084l-0.078-0.024l0.021,0.075l0.077,0.294
				l-0.263,0.143l-0.074,0.042l0.074,0.038l0.263,0.15l-0.087,0.292l-0.021,0.077l0.08-0.023l0.293-0.079l0.139,0.261l0.045,0.077
				l0.036-0.075l0.151-0.263l0.295,0.085l0.074,0.023l-0.021-0.079l-0.082-0.286l0.266-0.146l0.073-0.041L88.014,25.674z
				 M86.255,27.993l0.122-0.443l0.023-0.078l-0.08,0.023l-0.442,0.123L85.65,27.21l-0.039-0.067L85.57,27.21l-0.221,0.405
				L84.9,27.489l-0.078-0.022l0.02,0.076l0.131,0.444l-0.406,0.223l-0.071,0.037l0.071,0.043l0.398,0.229l-0.128,0.444l-0.021,0.076
				l0.076-0.021l0.443-0.124l0.226,0.405L85.6,29.37l0.037-0.072l0.229-0.399l0.446,0.126l0.073,0.023l-0.021-0.076l-0.117-0.446
				l0.402-0.223l0.068-0.042l-0.068-0.039L86.255,27.993z M87.678,27.288l0.034-0.137l0.026-0.075l-0.075,0.018l-0.138,0.041
				l-0.066-0.129l-0.041-0.069l-0.035,0.066l-0.074,0.129l-0.141-0.04l-0.074-0.021l0.02,0.076l0.039,0.135l-0.123,0.07l-0.069,0.04
				l0.069,0.041l0.123,0.069l-0.039,0.136l-0.028,0.078l0.084-0.022l0.133-0.04l0.076,0.131l0.036,0.065l0.046-0.065l0.063-0.126
				l0.136,0.04l0.079,0.022l-0.025-0.078l-0.033-0.137l0.125-0.07l0.063-0.038l-0.063-0.041L87.678,27.288z"/>
			<path d="M108.184,42.311c-0.139,0.135-0.281,0.291-0.397,0.451h1.438l0.276-0.218c-0.247-0.078-0.497-0.152-0.731-0.218
				C108.57,42.322,108.377,42.32,108.184,42.311"/>
			<polyline points="109.225,42.762 107.785,42.762 107.729,42.847 109.083,42.847 109.225,42.762 			"/>
			<path d="M108.561,41.849c-0.263,0.011-0.465,0.139-0.65,0.372l-0.079,0.081c0.383,0.009,0.8,0.024,1.228,0.024
				c0.082-0.151,0.155-0.315,0.213-0.478C109.029,41.835,108.792,41.823,108.561,41.849"/>
			<path d="M108.561,41.849L108.561,41.849c-0.263,0.011-0.465,0.139-0.65,0.372l-0.079,0.081l0.079-0.081
				C108.096,41.988,108.298,41.861,108.561,41.849"/>
			<path d="M108.861,41.835l-0.303,0.014c-0.262,0.011-0.463,0.139-0.649,0.372l-0.079,0.081c0.383,0.009,0.8,0.024,1.229,0.024
				c0.08-0.151,0.154-0.315,0.211-0.478C109.134,41.841,108.996,41.835,108.861,41.835"/>
			<path d="M95.73,53.411c1.496-0.787,1.517-0.827,2.324-1.611c0.492-0.487,1.719-1.858,1.344-1.858
				c-0.465,0-1.41,0.757-2.008,1.317C96.841,51.784,95.663,53.448,95.73,53.411z"/>
			<path d="M98.51,53.513c1.496-0.784,1.521-0.819,2.32-1.609c0.503-0.484,1.722-1.859,1.35-1.859c-0.47,0-1.406,0.758-1.996,1.323
				C99.627,51.889,98.448,53.549,98.51,53.513z"/>
			<path d="M92.371,53.288c1.49-0.784,1.518-0.821,2.32-1.605c0.492-0.487,1.722-1.864,1.354-1.864
				c-0.479,0-1.416,0.759-2.007,1.327C93.484,51.67,92.302,53.325,92.371,53.288z"/>
			<path d="M76.589,55.157c-0.545,0.538-1.3,1.403-1.369,1.885c-0.054,0.386,1.237-0.694,1.711-1.136
				c0.754-0.727,0.79-0.749,1.65-2.183C78.622,53.661,77.102,54.656,76.589,55.157z"/>
			<path d="M109.922,53.076c-0.561-0.239-2.105-0.55-2.053-0.505c1.132,0.884,1.154,0.886,2.002,1.227
				c0.521,0.205,1.89,0.652,1.734,0.358C111.4,53.786,110.525,53.331,109.922,53.076z"/>
			<path d="M91.355,51.801c0.494-0.486,1.722-1.858,1.35-1.858c-0.473,0-1.41,0.757-2,1.317c-0.559,0.524-1.739,2.188-1.67,2.152
				C90.523,52.624,90.55,52.585,91.355,51.801z"/>
			<path d="M117.518,46.785c-0.795,0.338-0.851,0.351-1.852,1.191c0.592-0.664,1.102-1.396,1.52-2.203
				c-1.281,1.256-2.271,2.936-3.811,3.921c-0.152,0.114-0.309,0.228-0.469,0.332c0.699-1.251,0.703-1.298,0.921-2.25
				c0.146-0.584,0.413-2.173,0.149-2.003c-0.334,0.202-0.66,1.201-0.83,1.891c-0.153,0.615-0.27,2.276-0.252,2.364l-0.248,0.161
				c-0.244,0.148-0.506,0.285-0.775,0.403c-0.296,0.155-0.6,0.309-0.922,0.451c-0.174,0.077-0.352,0.155-0.532,0.231
				c0.785-1.064,0.804-1.128,1.119-2.02c0.213-0.563,0.666-2.102,0.391-1.974c-0.356,0.166-0.801,1.105-1.059,1.771
				c-0.198,0.537-0.472,1.92-0.521,2.251c-0.836,0.354-1.703,0.654-2.578,0.923c0.855-0.944,0.888-1.011,1.293-1.85
				c0.261-0.541,0.867-2.019,0.578-1.924c-0.358,0.13-0.91,1.014-1.227,1.645c-0.25,0.496-0.652,1.806-0.739,2.153
				c-1.837,0.546-3.725,0.912-5.602,1.161c-1.584,0.208-3.115,0.13-4.707,0.102c-1.569-0.021-3.132-0.008-4.706,0
				c-2.249,0.017-4.457-0.008-6.666,0.301c-0.449-0.058-0.903-0.107-1.357-0.145c-0.352-0.028-0.709-0.05-1.061-0.071
				c-0.507-0.041-1.01-0.07-1.518-0.093c-0.166-0.299-1.094-1.676-1.566-2.158c-0.574-0.586-1.489-1.379-1.956-1.4
				c-0.37-0.01,0.806,1.406,1.281,1.909c0.76,0.801,0.803,0.858,2.162,1.646c-2.642-0.114-5.274,0.04-7.916,0.091
				c-0.35-0.003-0.709-0.008-1.061-0.018c-0.908-0.019-1.816-0.048-2.716-0.101c-0.186-0.292-1.155-1.627-1.637-2.09
				c-0.6-0.559-1.538-1.32-2.008-1.32c-0.37,0,0.862,1.377,1.35,1.861c0.783,0.769,0.829,0.821,2.204,1.547
				c-0.811-0.042-1.62-0.092-2.416-0.156c-0.301-0.034-0.617-0.075-0.918-0.12c-1.288-0.193-2.563-0.47-3.808-0.912
				c-0.242-0.088-0.492-0.183-0.737-0.283c-3.091-0.987-6.314-2.963-8.191-5.687c1.78,3.038,5.009,5.013,8.161,5.991
				c0.222,0.094,0.449,0.18,0.675,0.264c1.135,0.404,2.319,0.667,3.512,0.857c0.286,0.044,0.574,0.084,0.862,0.123
				c2.081,0.278,4.205,0.312,6.306,0.333c0.304,0,0.605,0,0.9,0.008c3.081-0.047,6.147-0.147,9.225,0.119
				c0.278,0.006,0.553,0.028,0.834,0.048c-0.13,0.029-0.266,0.054-0.4,0.084c-1.556,0.366-3.344,1.063-4.716,1.933l1.713-0.113
				c0.447-0.539,1.704-1.081,3.221-1.477c0.122-0.033,1.229-0.278,1.324-0.296c2.265,0.336,4.386,1.105,5.023,1.878l1.713,0.11
				c-1.377-0.871-3.121-1.672-4.674-2.036c-0.253-0.055-0.498-0.106-0.748-0.156c0.5-0.057,0.998-0.092,1.476-0.103
				c2.151-0.047,4.909-0.115,8.972-0.055c1.495,0.026,2.938,0.088,4.434-0.085c1.527-0.183,3.051-0.488,4.551-0.853
				c1.371-0.334,2.748-0.731,4.062-1.29c0.087,0.066,1.414,0.653,1.966,0.778c0.625,0.142,1.563,0.274,1.883,0.073
				c0.259-0.159-1.111-0.6-1.637-0.721c-0.853-0.211-0.891-0.228-2.197-0.143c0.277-0.117,0.556-0.242,0.824-0.378
				c0.313-0.15,0.615-0.311,0.916-0.487c0.25-0.148,0.5-0.303,0.737-0.46c0.944-0.642,1.819-1.382,2.594-2.25
				c0.132-0.006,1.519-0.315,2.035-0.543c0.584-0.261,1.423-0.723,1.581-1.083C119.385,46.107,118.023,46.572,117.518,46.785z"/>
			<path d="M94.5,55.227c-0.527-0.484-2.075-1.415-2.045-1.356c0.913,1.397,0.954,1.419,1.738,2.111
				c0.479,0.429,1.815,1.453,1.748,1.069C95.854,56.574,95.064,55.737,94.5,55.227z"/>
			<path d="M97.936,55.311c-0.543-0.472-2.105-1.374-2.064-1.313c0.928,1.379,0.969,1.404,1.77,2.075
				c0.484,0.418,1.842,1.418,1.764,1.038C99.309,56.634,98.502,55.815,97.936,55.311z"/>
			<path d="M60.675,51.971c-1.331-0.09-1.361-0.068-2.213,0.139c-0.525,0.124-1.897,0.564-1.637,0.723
				c0.316,0.198,1.255,0.066,1.879-0.075C59.291,52.632,60.731,51.976,60.675,51.971z"/>
			<path d="M104.008,54.951c-0.518-0.397-2.017-1.136-1.979-1.081c0.939,1.215,0.971,1.229,1.744,1.802
				c0.472,0.356,1.77,1.187,1.683,0.845C105.339,56.085,104.557,55.377,104.008,54.951z"/>
			<path d="M101.396,53.288c1.49-0.784,1.513-0.821,2.322-1.605c0.49-0.487,1.713-1.864,1.346-1.864
				c-0.473,0-1.405,0.759-2.008,1.327C102.508,51.67,101.33,53.325,101.396,53.288z"/>
			<path d="M106.023,50.88c-0.477,0.508-1.446,2.111-1.396,2.072c1.284-0.786,1.309-0.825,1.98-1.591
				c0.416-0.477,1.441-1.812,1.115-1.8C107.313,49.578,106.516,50.329,106.023,50.88z"/>
			<path d="M70.497,54.941c-0.6,0.462-1.451,1.226-1.582,1.693c-0.094,0.374,1.318-0.529,1.832-0.914
				c0.833-0.62,0.869-0.639,1.89-1.953C72.677,53.708,71.058,54.504,70.497,54.941z"/>
			<path d="M73.417,51.889c0.806,0.789,0.832,0.827,2.324,1.612c0.069,0.034-1.115-1.627-1.666-2.15
				c-0.595-0.563-1.536-1.322-2.007-1.322C71.703,50.03,72.922,51.408,73.417,51.889z"/>
			<path d="M70.576,51.983c0.803,0.79,0.831,0.824,2.326,1.61c0.061,0.03-1.117-1.626-1.667-2.146
				c-0.595-0.566-1.536-1.329-2.005-1.329C68.859,50.117,70.083,51.496,70.576,51.983z"/>
			<path d="M106.918,54.126c-0.538-0.294-2.041-0.75-1.997-0.708c1.048,0.992,1.082,1,1.877,1.42
				c0.495,0.26,1.832,0.839,1.698,0.533C108.33,54.982,107.496,54.445,106.918,54.126z"/>
			<path d="M100.7,55.15c-0.568-0.435-2.19-1.229-2.147-1.174c1.021,1.316,1.057,1.332,1.893,1.952
				c0.516,0.388,1.924,1.292,1.824,0.916C102.148,56.376,101.3,55.613,100.7,55.15z"/>
			<path d="M67.566,54.866c-0.551,0.431-1.344,1.131-1.453,1.566c-0.092,0.345,1.213-0.491,1.685-0.844
				c0.768-0.57,0.801-0.587,1.742-1.802C69.578,53.738,68.089,54.469,67.566,54.866z"/>
			<path d="M61.616,53.344c-0.63,0.198-1.538,0.571-1.773,0.918c-0.19,0.28,1.229-0.039,1.758-0.197
				c0.859-0.254,0.897-0.259,2.104-1.034C63.761,52.993,62.195,53.157,61.616,53.344z"/>
			<path d="M77.288,51.404c-0.591-0.565-1.535-1.327-2.004-1.327c-0.368,0,0.852,1.381,1.352,1.863
				c0.806,0.788,0.826,0.826,2.32,1.608C79.027,53.582,77.841,51.926,77.288,51.404z"/>
			<path d="M64.75,54.219c-0.581,0.318-1.413,0.854-1.579,1.246c-0.133,0.31,1.201-0.277,1.696-0.533
				c0.798-0.417,0.831-0.426,1.879-1.422C66.791,53.463,65.292,53.925,64.75,54.219z"/>
			<path d="M55.883,48.174c0.028,0.061,0.023-1.726-0.094-2.382c-0.135-0.703-0.398-1.715-0.714-1.946
				c-0.25-0.188-0.089,1.417,0.015,2.009C55.253,46.822,55.253,46.869,55.883,48.174z"/>
			<path d="M73.33,55.204c-0.576,0.499-1.377,1.319-1.472,1.797c-0.079,0.377,1.277-0.617,1.768-1.039
				c0.795-0.672,0.831-0.693,1.76-2.069C75.434,53.827,73.863,54.73,73.33,55.204z"/>
			<path d="M58.387,50.621c-1.27-0.426-1.303-0.421-2.18-0.438c-0.546-0.012-1.969,0.06-1.754,0.279
				c0.268,0.277,1.201,0.397,1.838,0.417C56.89,50.906,58.441,50.644,58.387,50.621z"/>
			<path d="M55.86,48.71c-1.135-0.734-1.173-0.734-2.02-0.978c-0.521-0.149-1.925-0.438-1.768-0.17
				c0.197,0.331,1.079,0.685,1.696,0.867C54.34,48.602,55.906,48.743,55.86,48.71z"/>
			<path d="M63.985,52.579c0.041,0.042-0.62-1.604-0.974-2.154c-0.382-0.591-1.005-1.414-1.38-1.499
				c-0.295-0.063,0.447,1.341,0.763,1.843C62.904,51.591,62.919,51.636,63.985,52.579z"/>
			<path d="M58.232,50.068c0.031,0.051-0.087-1.729-0.247-2.37c-0.174-0.69-0.508-1.688-0.832-1.895
				c-0.263-0.165,0.005,1.423,0.146,2.007C57.52,48.765,57.52,48.804,58.232,50.068z"/>
			<path d="M64.092,49.739c-0.331-0.015,0.697,1.316,1.11,1.79c0.678,0.772,0.701,0.806,1.981,1.599
				c0.059,0.033-0.921-1.564-1.385-2.08C65.301,50.499,64.5,49.748,64.092,49.739z"/>
			<path d="M60.864,51.453c0.036,0.043-0.288-1.705-0.525-2.326c-0.25-0.662-0.694-1.604-1.046-1.767
				c-0.275-0.134,0.174,1.412,0.378,1.974C60.004,50.254,60.012,50.292,60.864,51.453z"/>
			<path d="M86.813,52.282c0.023-0.387-0.246-0.72-0.613-0.745c-0.362-0.02-0.68,0.271-0.707,0.656s0.253,0.716,0.611,0.739
				C86.469,52.96,86.79,52.666,86.813,52.282z"/>
			<ellipse cx="87.869" cy="51.052" rx="0.706" ry="0.75"/>
			<path d="M89.078,51.501c0-0.119-0.089-0.21-0.199-0.21c-0.109,0-0.195,0.091-0.195,0.21s0.086,0.213,0.195,0.213
				S89.078,51.62,89.078,51.501z"/>
			<path d="M87.311,50.227c0.115,0,0.199-0.093,0.199-0.208s-0.084-0.213-0.199-0.213c-0.104,0-0.192,0.098-0.192,0.213
				C87.117,50.134,87.206,50.227,87.311,50.227z"/>
			<path d="M83.804,55.365c0-0.131-0.104-0.235-0.222-0.235c-0.123,0-0.225,0.104-0.225,0.235c0,0.13,0.102,0.231,0.225,0.231
				C83.7,55.595,83.804,55.493,83.804,55.365z"/>
			<path d="M84.421,57.401c-0.12,0-0.222,0.104-0.222,0.234c0,0.127,0.102,0.236,0.222,0.236c0.122,0,0.222-0.108,0.222-0.236
				C84.643,57.505,84.543,57.401,84.421,57.401z"/>
			<path d="M83.972,57.741c-0.129,0-0.227,0.107-0.227,0.236c0,0.132,0.097,0.236,0.227,0.236c0.12,0,0.22-0.104,0.22-0.236
				C84.192,57.85,84.092,57.741,83.972,57.741z"/>
			<ellipse cx="83.419" cy="58.066" rx="0.22" ry="0.236"/>
			<path d="M82.863,57.556c-0.117,0-0.217,0.107-0.217,0.234c0,0.131,0.1,0.24,0.217,0.24c0.127,0,0.227-0.108,0.227-0.24
				C83.09,57.664,82.99,57.556,82.863,57.556z"/>
			<path d="M82.47,57.085c-0.122,0-0.225,0.103-0.225,0.239c0,0.127,0.103,0.231,0.225,0.231c0.125,0,0.222-0.104,0.222-0.231
				C82.692,57.188,82.595,57.085,82.47,57.085z"/>
			<path d="M82.582,56.596c0-0.131-0.096-0.232-0.219-0.232c-0.127,0-0.225,0.103-0.225,0.232s0.097,0.239,0.225,0.239
				C82.486,56.835,82.582,56.727,82.582,56.596z"/>
			<path d="M82.537,55.756c-0.125,0-0.219,0.102-0.219,0.233c0,0.13,0.094,0.234,0.219,0.234c0.117,0,0.219-0.104,0.219-0.234
				C82.756,55.858,82.654,55.756,82.537,55.756z"/>
			<path d="M82.939,55.324c-0.117,0-0.22,0.102-0.22,0.235c0,0.125,0.103,0.234,0.22,0.234c0.127,0,0.225-0.108,0.225-0.234
				C83.164,55.426,83.067,55.324,82.939,55.324z"/>
			<path d="M84.192,52.312c-0.013-0.371-0.298-0.662-0.651-0.645c-0.346,0.01-0.622,0.323-0.612,0.691
				c0.005,0.37,0.293,0.654,0.643,0.646C83.924,52.99,84.197,52.683,84.192,52.312z"/>
			<path d="M86.143,54.794c0-0.13-0.102-0.236-0.225-0.236c-0.124,0-0.223,0.105-0.223,0.236c0,0.127,0.099,0.234,0.223,0.234
				C86.041,55.029,86.143,54.921,86.143,54.794z"/>
			<path d="M86.111,56.673c-0.121,0-0.219,0.104-0.219,0.236s0.098,0.232,0.219,0.232c0.127,0,0.223-0.102,0.223-0.232
				S86.238,56.673,86.111,56.673z"/>
			<path d="M85.68,56.96c-0.125,0-0.226,0.103-0.226,0.228c0,0.136,0.101,0.24,0.226,0.24c0.121,0,0.219-0.104,0.219-0.24
				C85.896,57.062,85.801,56.96,85.68,56.96z"/>
			<ellipse cx="85.168" cy="57.283" rx="0.224" ry="0.236"/>
			<path d="M84.449,55.204c0-0.132-0.102-0.236-0.225-0.236s-0.219,0.104-0.219,0.236c0,0.126,0.096,0.236,0.219,0.236
				S84.449,55.33,84.449,55.204z"/>
			<path d="M68.535,49.138c-0.219-0.011-0.597-0.025-0.984-0.021c-0.444,0-0.793,0.007-1.209,0.021l0.01-0.227
				c0.408-0.042,0.449-0.073,0.408-0.251c-0.064-0.283-0.214-0.876-0.316-1.264c-0.176-0.007-0.428-0.007-0.673-0.007
				c-0.25,0-0.479,0-0.63,0.008c-0.181,0.59-0.257,0.906-0.291,1.082c-0.061,0.313-0.002,0.39,0.597,0.432v0.227
				c-0.245,0-0.5-0.021-0.839-0.021c-0.235,0-0.571,0.021-0.857,0.021l0.01-0.227c0.372-0.03,0.504-0.093,0.67-0.488
				c0.232-0.581,1.043-2.833,1.219-3.374c0.056-0.18,0.091-0.294,0.12-0.476c0.158-0.001,0.37-0.021,0.551-0.049
				c0.191-0.031,0.347-0.063,0.403-0.092c0.122,0.478,0.438,1.593,0.739,2.617c0.271,0.938,0.428,1.399,0.525,1.633
				c0.054,0.125,0.133,0.187,0.275,0.203l0.271,0.025L68.535,49.138L68.535,49.138z M65.248,47.097c0.143,0,0.356,0.005,0.569,0.005
				c0.214,0,0.417-0.005,0.55-0.005c-0.168-0.648-0.347-1.382-0.489-1.978C65.73,45.569,65.546,46.098,65.248,47.097z"/>
			<path d="M71.744,48.873c0.576,0,1.051-0.275,1.145-1.298c0.099-1.163,0.041-2.128,0.008-2.521c-0.01-0.255-0.102-0.292-0.286-0.3
				l-0.373-0.028l-0.02-0.221c0.229,0,0.53,0.026,0.801,0.026c0.254,0,0.495-0.026,0.763-0.026l0.025,0.221l-0.248,0.02
				c-0.204,0.017-0.217,0.093-0.227,0.306c-0.049,0.829-0.064,2.113-0.155,2.77c-0.069,0.504-0.26,0.854-0.562,1.083
				c-0.275,0.217-0.658,0.326-1.155,0.326c-0.63,0-1.15-0.188-1.416-0.519c-0.204-0.242-0.296-0.592-0.301-1.114
				c-0.008-0.582,0.01-2.183-0.008-2.604c-0.01-0.153-0.015-0.229-0.115-0.24l-0.341-0.025v-0.221c0.293,0,0.66,0.026,1.045,0.026
				c0.388,0,0.75-0.026,1.015-0.026l0.026,0.222l-0.352,0.035l-0.138,0.173c-0.056,0.57-0.072,1.954-0.036,2.772
				c0.025,0.532,0.12,0.794,0.291,0.95c0.143,0.14,0.368,0.216,0.607,0.216h0.007V48.873z"/>
			<path d="M75.084,47.542c0.005,0.804,0.459,1.424,1.199,1.424c0.449,0,0.78-0.25,0.78-0.711c0-0.235-0.069-0.435-0.275-0.569
				c-0.194-0.126-0.898-0.537-1.239-0.782c-0.413-0.278-0.589-0.632-0.589-1.066c0-0.881,0.627-1.427,1.507-1.427
				c0.428,0,0.76,0.117,0.931,0.271l0.135-0.308l0.209,0.047c-0.118,0.623-0.123,1.136-0.123,1.441l-0.211,0.039
				c-0.049-0.723-0.38-1.24-0.911-1.24c-0.434,0-0.653,0.343-0.653,0.698c0,0.241,0.092,0.482,0.393,0.642
				c0.872,0.509,1.193,0.687,1.372,0.831c0.296,0.232,0.416,0.543,0.413,0.934c-0.002,1.037-0.864,1.464-1.887,1.464
				c-0.438,0-0.969-0.08-1.342-0.217c0.057-0.414,0.067-0.966,0.077-1.437L75.084,47.542z"/>
			<path d="M81.659,47.407c0,0.709,0.013,1.072,0.031,1.253c0.005,0.144,0.043,0.196,0.178,0.209
				c0.23,0.023,0.362,0.036,0.561,0.042l-0.025,0.227c-0.204,0-0.824-0.021-1.408-0.021c-0.423,0-0.836,0.021-1.168,0.021
				l-0.026-0.227c0.151-0.005,0.281-0.019,0.5-0.042c0.153-0.013,0.24-0.046,0.248-0.194c0.018-0.241,0.028-0.529,0.028-1.265
				v-1.688c0-0.447,0-0.775-0.005-0.957c-0.694,0-0.801,0.091-0.946,0.358c-0.151,0.292-0.263,0.604-0.35,0.896l-0.209-0.047
				c0.079-0.411,0.133-1.197,0.158-1.505c0.245,0.037,0.801,0.063,1.556,0.063h0.678c0.923,0,1.362-0.007,1.694-0.063
				c-0.015,0.112-0.092,0.764-0.071,1.438l-0.214,0.067c-0.077-0.495-0.214-0.795-0.296-0.94c-0.097-0.194-0.229-0.275-0.903-0.267
				c-0.005,0.191-0.01,0.521-0.01,0.896L81.659,47.407L81.659,47.407z"/>
			<path d="M84.908,46.073c0-0.717-0.008-1.002-0.016-1.156c-0.005-0.103-0.035-0.149-0.184-0.154l-0.362-0.011l0.039-0.22
				c0.157-0.001,0.431-0.007,0.752-0.018c0.354-0.009,0.824-0.024,1.372-0.024c0.819,0,1.168,0.122,1.384,0.328
				c0.209,0.194,0.279,0.45,0.279,0.715c0,0.756-0.584,1.003-1.336,1.127v0.033c0.861,0.153,1.246,0.361,1.382,0.811
				c0.117,0.262,0.134,0.693,0.128,1.166c0,0.157,0.062,0.217,0.174,0.219l0.285-0.05l-0.039,0.239
				c-0.14,0.069-0.385,0.106-0.688,0.106c-0.652,0-0.915-0.21-0.934-0.835c-0.008-0.33,0-0.551-0.008-0.776
				c-0.025-0.625-0.449-0.738-0.984-0.738H85.99v0.762c0,0.576,0.01,0.891,0.025,1.09c0.01,0.173,0.053,0.188,0.539,0.227
				L86.54,49.14c-0.24,0-0.688-0.021-1.072-0.021c-0.438,0-0.893,0.021-1.122,0.021l0.01-0.227c0.465-0.033,0.514-0.063,0.53-0.218
				c0.005-0.163,0.021-0.504,0.021-1.121L84.908,46.073L84.908,46.073z M85.99,46.585h0.154c0.568,0,0.894-0.274,0.894-0.959
				c0-0.277-0.038-0.482-0.115-0.615c-0.094-0.162-0.249-0.273-0.541-0.273l-0.271,0.021l-0.092,0.126
				c-0.01,0.09-0.024,0.339-0.029,1.019V46.585z"/>
			<path d="M94.199,49.138c-0.219-0.011-0.598-0.025-0.986-0.021c-0.441,0-0.788,0.007-1.201,0.021v-0.227
				c0.415-0.042,0.453-0.073,0.415-0.251c-0.061-0.283-0.22-0.876-0.325-1.264c-0.168-0.007-0.427-0.007-0.668-0.007
				c-0.242,0-0.479,0-0.631,0.008c-0.179,0.59-0.253,0.906-0.289,1.082c-0.063,0.313-0.005,0.39,0.592,0.432v0.227
				c-0.241,0-0.491-0.021-0.838-0.021c-0.229,0-0.566,0.021-0.853,0.021l0.005-0.227c0.378-0.03,0.514-0.093,0.676-0.488
				c0.232-0.581,1.041-2.833,1.217-3.374c0.06-0.18,0.096-0.294,0.121-0.476c0.154-0.001,0.369-0.021,0.553-0.049
				c0.188-0.031,0.35-0.063,0.406-0.092c0.119,0.478,0.436,1.593,0.735,2.617c0.269,0.938,0.425,1.399,0.524,1.633
				c0.055,0.125,0.125,0.187,0.273,0.203l0.272,0.025L94.199,49.138L94.199,49.138z M90.909,47.097c0.146,0,0.356,0.005,0.571,0.005
				c0.211,0,0.426-0.005,0.549-0.005c-0.161-0.648-0.348-1.382-0.487-1.978C91.396,45.569,91.208,46.098,90.909,47.097z"/>
			<path d="M98.869,47.627c-0.044,0.355-0.104,1.077-0.146,1.519c-0.129-0.014-0.447-0.021-0.875-0.026
				c-0.435-0.002-0.971-0.002-1.535-0.002c-0.313,0-0.998,0.021-1.18,0.021l0.006-0.227l0.358-0.03
				c0.161-0.017,0.215-0.058,0.22-0.188c0.018-0.237,0.047-0.687,0.047-1.261v-1.541c0-0.586-0.007-0.825-0.015-0.987
				c-0.004-0.106-0.047-0.144-0.19-0.15l-0.312-0.021l0.01-0.227c0.17,0,0.71,0.024,1.079,0.024c0.375,0,0.686-0.024,1.087-0.024
				l0.027,0.227l-0.364,0.028c-0.15,0.006-0.209,0.056-0.214,0.179c-0.009,0.27-0.033,0.7-0.033,1.278V47.5
				c0,0.567,0.002,1.042,0.017,1.232c0.01,0.09,0.045,0.136,0.274,0.136c0.636,0,0.886-0.067,1.084-0.299
				c0.193-0.235,0.334-0.515,0.435-0.948L98.869,47.627z"/>
			<path d="M100.549,45.892c0-0.551-0.015-0.768-0.02-0.929c-0.008-0.183-0.059-0.207-0.512-0.23l0.012-0.227
				c0.209,0,0.609,0.024,1.039,0.024c0.404,0,0.808-0.024,1.05-0.024l0.005,0.227c-0.416,0.025-0.467,0.051-0.477,0.21
				c-0.006,0.155-0.021,0.422-0.021,0.949v1.703c0,0.583,0.016,0.891,0.021,1.078c0.015,0.186,0.061,0.212,0.49,0.238l-0.015,0.227
				c-0.247-0.006-0.647-0.021-1.093-0.021c-0.412,0-0.805,0.015-1.034,0.021l0.008-0.227c0.442-0.023,0.494-0.055,0.507-0.227
				c0.012-0.157,0.038-0.495,0.038-1.058L100.549,45.892L100.549,45.892z"/>
			<path d="M107.885,49.133c-0.212-0.006-0.592-0.021-0.982-0.017c-0.436,0-0.793,0.007-1.213,0.017l0.004-0.222
				c0.42-0.042,0.463-0.073,0.42-0.251c-0.059-0.283-0.213-0.876-0.313-1.263c-0.177-0.008-0.432-0.008-0.671-0.008
				c-0.251,0-0.479,0-0.628,0.008c-0.187,0.59-0.263,0.906-0.296,1.082c-0.059,0.313-0.002,0.39,0.597,0.432v0.222
				c-0.25,0-0.499-0.017-0.841-0.017c-0.229,0-0.566,0.021-0.85,0.021l0.002-0.227c0.38-0.03,0.516-0.093,0.671-0.488
				c0.237-0.581,1.049-2.833,1.217-3.374c0.062-0.18,0.099-0.294,0.128-0.476c0.158-0.001,0.367-0.021,0.543-0.049
				c0.194-0.031,0.355-0.063,0.411-0.092c0.119,0.478,0.44,1.593,0.733,2.617c0.272,0.938,0.434,1.399,0.533,1.633
				c0.049,0.125,0.116,0.187,0.264,0.203l0.271,0.025V49.133z M104.602,47.097c0.143,0,0.358,0.005,0.567,0.005
				c0.218,0,0.423-0.005,0.552-0.005c-0.166-0.648-0.346-1.382-0.488-1.978C105.086,45.569,104.896,46.098,104.602,47.097z"/>
			<path d="M94.354,26.558l-0.018-0.065l-0.438-1.645l-0.004,0.013v-0.022l0.004,0.01l0.408-1.601l0.014-0.067l-0.063,0.02
				l-1.423,0.377l0.847-2.701l0.021-0.081l-0.076,0.031l-1.861,0.819l0.016,0.008H91.75l0.016-0.008l-1.899-0.819l-0.073-0.031
				l0.02,0.081l0.842,2.704l-1.385-0.35l-0.062-0.014l0.015,0.065l0.401,1.499l0.006-0.004v0.019l-0.006-0.015l-0.438,1.712
				l-0.015,0.065l0.067-0.021l1.416-0.444l-0.842,2.901l-0.016,0.069l0.068-0.024l1.863-0.654l-0.01-0.003h0.023l-0.014,0.003
				l1.899,0.654l0.067,0.024l-0.014-0.069l-0.848-2.901l1.458,0.444L94.354,26.558z M92.932,24.982
				c-0.076,0.122-0.141,0.236-0.168,0.34v0.469h-1.91v-0.416v-0.008c-0.033-0.104-0.106-0.212-0.184-0.332
				c-0.188-0.268-0.388-0.563-0.158-0.884c0.102-0.132,0.217-0.192,0.397-0.206c0.153-0.013,0.478,0.073,0.666,0.177
				c-0.066-0.12,0.03-0.322,0.116-0.496l0.057-0.135l0.039-0.087l0.035,0.087l0.059,0.12c0.079,0.175,0.166,0.374,0.107,0.496
				c0.197-0.104,0.494-0.206,0.646-0.206c0.177,0.003,0.31,0.067,0.402,0.189C93.281,24.401,93.102,24.71,92.932,24.982z
				 M91.688,24.292l0.016-0.017v0.962h-0.301l0.027-0.059l-0.166-0.238l-0.068-0.062l-0.078-0.075l0.016,0.104l0.002,0.068
				l0.043,0.261h-0.184l-0.021-0.043c-0.104-0.189-0.209-0.385-0.262-0.586c-0.029-0.148,0.02-0.245,0.074-0.309
				c0.087-0.093,0.236-0.135,0.388-0.112l0.123,0.02l0.334,0.051L91.688,24.292z M92.779,24.254c0.048,0.053,0.113,0.151,0.08,0.305
				c-0.035,0.207-0.135,0.407-0.227,0.602L92.6,25.238h-0.154l0.031-0.261v-0.063l0.002-0.104l-0.068,0.075l-0.069,0.066
				l-0.147,0.242l0.016,0.043h-0.355V24.27l0.024,0.027l0.054-0.04l0.369-0.078l0.082-0.015
				C92.534,24.128,92.682,24.164,92.779,24.254z"/>
			<path d="M94.516,20.004L94.5,19.876h-0.13H77.52h-0.133L77.364,20c-0.592,4.352-0.729,7.395-0.729,9.255
				c0,1.518,0.091,2.245,0.091,2.252v0.003v0.001c0.679,4.114,2.974,6.208,5.119,7.251c2.14,1.044,4.125,1.054,4.235,1.054l0,0
				h0.011c3.608-0.167,5.784-1.488,7.085-3.134c1.301-1.641,1.744-3.591,1.967-5.009c0.078-0.501,0.109-1.166,0.109-1.932
				C95.253,26.044,94.516,20.007,94.516,20.004z M83.287,20.175h5.34v9.505h-5.34V20.175z M81.195,20.175h1.775v3.546h-1.775V20.175
				z M81.221,24.083l-0.01,0.199l-0.255,0.009c-0.13-0.029-0.25-0.072-0.377-0.055c-0.077,0.01-0.255,0.087-0.115,0.171l0.288,0.021
				c0.164,0.013,0.327,0,0.487,0.038c0.281,0.063,0.069,0.235,0.048,0.412l0.316,0.362c0.168,0.235-0.214,0.451-0.324,0.533
				l-0.125,0.144h-0.181l-0.028-0.131c0.076-0.048,0.094-0.08,0.229-0.08l0.215-0.319l-0.151-0.128l-0.209-0.144
				c-0.176-0.072-0.141,0.213-0.191,0.308c-0.066,0.131-0.211,0.139-0.331,0.21l-0.141,0.141H80.16l-0.051-0.141l0.018-0.036
				c0.237,0.004,0.334-0.134,0.485-0.216l-0.023-0.261l-0.255-0.01l-0.145,0.072l-0.217,0.083c-0.123,0.058-0.209,0.008-0.327,0.006
				c-0.194-0.006-0.263,0.204-0.357,0.325l-0.202,0.177h-0.028l-0.077,0.132l-0.372-0.045l0.153-0.122
				c0.138-0.025,0.127-0.049,0.199-0.168l0.214-0.225l0.207-0.26l0.24,0.063c0.227-0.043,0.311-0.109,0.449-0.283
				c0.089-0.105,0.043-0.157,0.204-0.146l0.309,0.055l0.26,0.014l0.204-0.042l0.102-0.119c-0.168-0.094-1.083,0.064-0.89-0.372
				l0.255-0.149l0.263,0.044l0.291-0.095L81.221,24.083z M80.634,29.26l-0.326-0.096L80.14,29.46l-0.163-0.301l-0.327,0.09
				l0.097-0.321l-0.296-0.171l0.301-0.159l-0.094-0.329l0.324,0.096l0.168-0.292l0.161,0.292l0.328-0.089l-0.091,0.327l0.286,0.168
				l-0.291,0.162L80.634,29.26z M78.545,24.313l0.143-0.126l0.176,0.254c0.135,0.121,0.316,0.336,0.362,0.516l-0.021,0.021
				l-0.041,0.021l-0.021,0.016c-0.168-0.086-0.337-0.314-0.418-0.478L78.545,24.313z M79.657,20.615l0.324,0.092l0.168-0.291
				l0.161,0.296l0.328-0.094l-0.091,0.329l0.286,0.164l-0.291,0.166l0.091,0.324l-0.326-0.097l-0.168,0.298l-0.163-0.302
				l-0.327,0.091l0.097-0.319l-0.296-0.169l0.301-0.16L79.657,20.615z M79.135,24.087l0.178,0.079l0.145-0.043l0.141-0.04h0.021
				l0.143,0.042l0.148,0.054l0.178-0.078c0.097,0.059-0.028,0.57-0.173,0.767l-0.283,0.122h-0.064l-0.278-0.128
				C79.147,24.66,79.032,24.14,79.135,24.087z M77.65,20.175h1.382v3.542h-1.79C77.344,22.644,77.477,21.477,77.65,20.175z
				 M77.521,24.809l-0.095-0.323l0.327,0.09l0.163-0.288l0.168,0.293l0.324-0.093l-0.094,0.331l0.296,0.163l-0.296,0.167
				l0.084,0.323l-0.324-0.093l-0.164,0.295l-0.163-0.295l-0.334,0.085l0.102-0.321l-0.296-0.17L77.521,24.809z M76.941,29.254
				c0-0.784,0.022-1.789,0.096-3.005h1.995v3.432h-2.086C76.941,29.545,76.941,29.406,76.941,29.254z M82.97,38.901
				c-0.324-0.116-0.653-0.249-0.995-0.414c-2.071-1.018-4.28-3.009-4.948-7.025c-0.005-0.006-0.025-0.173-0.041-0.534
				c-0.02-0.231-0.03-0.547-0.038-0.935h6.021v8.908H82.97z M82.97,29.68h-1.775v-3.432h1.775V29.68z M82.787,25.121l0.087,0.324
				l-0.327-0.097l-0.164,0.296L82.22,25.35l-0.329,0.091l0.089-0.324l-0.286-0.166l0.293-0.165L81.9,24.458l0.319,0.098l0.171-0.299
				l0.16,0.302l0.327-0.092l-0.09,0.323l0.293,0.166L82.787,25.121z M86.076,39.513c-0.071,0-1.277-0.02-2.79-0.509v-9.012h5.34
				v9.152C87.867,39.337,87.033,39.467,86.076,39.513z M94.839,31.622c-0.219,1.403-0.646,3.295-1.896,4.867
				c-0.868,1.09-2.135,2.025-4.006,2.563v-9.06h6.008C94.938,30.636,94.911,31.212,94.839,31.622z M88.938,29.68v-9.505h5.295
				c0.047,0.395,0.193,1.703,0.354,3.341c0.178,1.946,0.359,4.343,0.361,6.165L88.938,29.68L88.938,29.68z"/>
			<path d="M84.194,57.096l0.03-0.147c-0.209-0.004-0.382-0.171-0.382-0.381c0-0.12,0.061-0.225,0.143-0.297
				c-0.166-0.028-0.293-0.177-0.304-0.356l-0.13-0.013c-0.439,0-0.796,0.378-0.796,0.838c0,0.467,0.357,0.851,0.796,0.851
				c0.278,0,0.513-0.154,0.663-0.384L84.194,57.096z"/>
			<path d="M84.603,56.835c-0.12,0-0.219,0.106-0.219,0.237c0,0.126,0.099,0.235,0.219,0.235c0.117,0,0.225-0.109,0.225-0.235
				C84.827,56.943,84.72,56.835,84.603,56.835z"/>
			<path d="M84.225,56.33c-0.123,0-0.219,0.106-0.219,0.237c0,0.134,0.096,0.234,0.219,0.234c0.12,0,0.22-0.101,0.22-0.234
				C84.444,56.437,84.345,56.33,84.225,56.33z"/>
			<path d="M84.082,55.645c-0.127,0-0.219,0.108-0.219,0.238s0.092,0.236,0.219,0.236c0.12,0,0.222-0.105,0.222-0.236
				C84.304,55.754,84.202,55.645,84.082,55.645z"/>
			<path d="M94.709,30.449l-0.157-0.106c-0.196-0.144-0.338-0.244-0.747-0.189c-0.231,0.034-0.527,0.365-0.634,0.712
				c-0.135,0.441,0.028,0.758,0.253,1.195l0.008,0.031l0.104,0.196c0.063,0.102,0.079,0.133,0.095,0.247
				c0.043,0.304-0.314,0.588-0.438,0.669l-0.273-0.028l-0.063-0.01l0.029,0.002l-0.244-0.094c-0.025-0.117-0.041-0.226-0.025-0.333
				l0.1,0.022l0.036-0.146c0.043-0.167,0.015-0.294-0.005-0.391L92.74,32.2l0.066-0.01l0.018-0.229l-0.081-0.202
				c-0.058-0.113-0.115-0.229-0.204-0.377c-0.146-0.241-0.492-0.477-0.826-0.555c-0.22-0.055-0.418-0.033-0.564,0.056l-0.086,0.118
				h-0.008c-0.268,0.03-0.464,0.063-0.529,0.155l0.015-0.016l-0.138,0.166l-0.006,0.021l0.028-0.035l-0.008,0.39l0.095,0.09
				l-0.062,0.008l-0.163,0.17l-0.044,0.13l0.079,0.104l0.027,0.006l0.144-0.144l0.063,0.052l0.08,0.067l0.014,0.011l0.02,0.005
				l0.051,0.021l0.191,0.027l-0.1,0.008l-0.033,0.027l-0.074,0.053l-0.146,0.112l-0.275,0.182l-0.139-0.147
				c-0.095-0.18-0.127-0.434-0.104-0.766l0.016-0.16l0.024-0.253c0-0.042,0.003-0.092,0.017-0.21l0.012-0.107V30.95l0.017-0.321
				c-0.06-0.169-0.131-0.284-0.291-0.369c-0.133-0.073-0.29-0.063-0.456,0.039c-0.09,0.046-0.182,0.127-0.223,0.285l-0.066,0.273
				c0,0,0.245-0.441,0.112-0.058l-0.063,0.231l0.104-0.156c0.075-0.136,0.046,0.029,0.018,0.205
				c0.085-0.137,0.151-0.302,0.199-0.161c-0.005,0,0.101,0.317,0.051,0.838l-0.002,0.009c-0.013,0.185-0.032,0.369-0.065,0.55
				c-0.03,0.128-0.06,0.26-0.107,0.416l-0.007,0.027l-0.06,0.212l-0.021,0.053l-0.019,0.258l0.152,0.1l0.161,0.007l0.168,0.026
				c0.095,0.148,0.063,0.37,0.043,0.554l-0.005,0.034l0.046,0.264l0.011,0.039l0.016,0.056c0.043,0.124,0.084,0.251,0.176,0.361
				l0.059,0.066l0.12,0.206l-0.065,0.328l-0.047,0.18l-0.041,0.183l-0.075,0.328l-0.011,0.044c-0.062,0.207-0.127,0.419-0.266,0.57
				l-0.234,0.116c-0.125,0.03-0.263,0.065-0.334,0.231l-0.027,0.06l-0.038,0.21v0.033l0.01,0.231l0.128-0.191l0.061-0.102
				l0.021,0.005l0.008,0.014l0.022,0.027l0.169,0.104l0.219-0.062l0.039-0.017c0.141-0.052,0.28-0.121,0.413-0.203
				c0.188-0.103,0.265-0.34,0.336-0.543l0.05-0.146l0.034-0.093l0.121-0.224c0.124-0.116,0.222-0.207,0.32-0.28
				c0.128-0.101,0.184-0.286,0.228-0.451l0.066-0.204l0.018-0.06l0.141-0.237c0.104-0.101,0.221-0.187,0.34-0.273l0.019-0.018
				l0.111-0.085l0.204-0.151l0.092-0.007l0.082,0.078l0.122-0.026l0,0h0.019c-0.059,0.125-0.324,0.425-0.377,0.474l-0.246,0.102
				c-0.187,0.01-0.26,0.116-0.293,0.199l0.016,0.109l0.146-0.021l0.067-0.029l0.002,0.002l0.057,0.059l0.016,0.006
				c0.045,0.035,0.149,0.103,0.326,0.032l0.075-0.118l0.009-0.021l-0.002,0.005l0.162-0.178l0.301-0.166l0.267-0.142l0.019-0.013
				l0.01-0.027l0.052-0.181l0.028-0.112l0.203,0.056h0.019l0.181-0.063l0.076-0.042l0.023,0.072c0.021,0.12-0.023,0.295-0.09,0.383
				c-0.08,0.102-0.138,0.24-0.174,0.402l0.051,0.166l0.096,0.018l0.059-0.106l0.021,0.015l0.15,0.021
				c0.079-0.021,0.137-0.117,0.207-0.256c0.061-0.118,0.033-0.252,0.023-0.366l-0.012-0.208L94,34.124l0.104-0.245
				c0.061-0.194-0.043-0.253-0.08-0.265l-0.233,0.057l-0.104,0.052l-0.166-0.142l0.112-0.217l0.013-0.018l0.09-0.106
				c0.074-0.082,0.17-0.18,0.223-0.454c0.078-0.388-0.066-0.61-0.23-0.866c-0.086-0.131-0.178-0.274-0.252-0.457
				c-0.078-0.189-0.002-0.557,0.164-0.793c0.055-0.081,0.17-0.218,0.328-0.213c0.229,0.007,0.299,0.009,0.408,0.304l0.141,0.3
				l0.039,0.062l0.063-0.025l0.035-0.036v0.007l0.109,0.05l0.025-0.157l-0.01-0.025l0.027,0.03l0.051-0.012l0.051-0.01l0.009-0.054
				C94.919,30.851,94.839,30.54,94.709,30.449z M90.55,31.363l-0.021-0.044l0.214-0.111l-0.073,0.171L90.55,31.363z M90.843,32.04
				l-0.171-0.081l0.021-0.02l0.199,0.022l0.006,0.017L90.843,32.04z M90.934,31.755l-0.226-0.019l-0.017-0.095l-0.018-0.068
				l-0.003-0.014l0.131,0.033l0.085,0.011h0.01l0.117,0.082L90.934,31.755z M91.65,31.159l-0.127,0.069l-0.201-0.098l-0.002-0.005
				l0.002,0.002l-0.096-0.046l0.094-0.056c0.08-0.047,0.173-0.089,0.32,0.054l0.041,0.038L91.65,31.159z"/>
			<path d="M82.743,32.289v-0.005l-0.018-0.033l-0.031-0.017l-0.041,0.021c-0.082,0.049-0.377,0.248-0.507,0.325l-0.237,0.096
				l-0.026-0.007l0.164-0.195c0.164-0.136,0.439-0.331,0.569-0.398l0.166-0.215l-0.148-0.144l-0.061,0.01
				c-0.176,0.048-0.515,0.301-0.699,0.373l-0.099,0.028l-0.028-0.015c-0.002-0.027,0.051-0.119,0.184-0.193
				c0.16-0.09,0.637-0.407,0.745-0.496l0.089-0.178l-0.045-0.097l-0.112-0.039l-0.041,0.005l-0.015,0.005l-0.763,0.455l-0.13,0.033
				l-0.041-0.015l0.148-0.17c0.079-0.047,0.627-0.353,0.862-0.606l0.091-0.286c-0.005-0.152-0.041-0.315-0.173-0.333h-0.021
				l0.003,0.007l-0.021,0.002c-0.038,0.03-0.956,0.748-1.155,0.963c-0.232,0.252-0.271,0.595-0.271,0.914v0.271v0.062
				c0.005,0.177-0.025,0.42-0.176,0.42h-0.008c-0.117,0.005-0.17-0.128-0.204-0.327c-0.041-0.186-0.041-0.394-0.102-0.511
				c-0.086-0.148-0.214-0.267-0.398-0.267l-0.056,0.003l-0.01,0.002l-0.321,0.119c-0.092,0.043-0.398-0.016-0.49,0.176l0.005,0.034
				l0.025,0.022l0.304,0.084l0.237,0.156l0.064,0.174c0,0.063-0.028,0.134-0.151,0.223l-0.208,0.074
				c-0.158-0.031-0.194-0.271-0.191-0.421l0.002-0.093h-0.002l-0.028-0.047l-0.25-0.082l0,0c-0.006-0.104,0.076-0.258,0.207-0.324
				l0.022-0.046c-0.027-0.254-0.076-0.441-0.275-0.625c-0.102-0.106-0.395-0.333-0.668-0.533c-0.135-0.103-0.26-0.199-0.357-0.268
				l-0.115-0.085l-0.033-0.024l-0.01-0.006H77.89l-0.015-0.008l0,0h-0.011c-0.133,0.014-0.168,0.173-0.168,0.312l0.102,0.307
				c0.24,0.246,0.806,0.528,0.885,0.575l0.151,0.166l-0.042,0.012l-0.132-0.027l-0.775-0.426l-0.016-0.005l-0.03-0.002l-0.118,0.032
				l-0.048,0.096l0.104,0.184c0.107,0.09,0.591,0.386,0.76,0.471c0.135,0.063,0.189,0.159,0.189,0.188l-0.033,0.007l-0.1-0.015
				c-0.186-0.072-0.528-0.31-0.709-0.353l-0.051-0.002l-0.153,0.135l0.173,0.218c0.135,0.067,0.418,0.249,0.584,0.379
				c0.123,0.089,0.171,0.169,0.166,0.19l-0.028,0.01l-0.234-0.083l-0.319-0.193l-0.147-0.093l-0.052-0.028l-0.01-0.008l-0.034-0.01
				l-0.027,0.031l-0.005-0.005l-0.005,0.015l-0.005,0.005l0.005,0.007l-0.041,0.24c0,0.372,0.138,0.945,0.327,1.254
				c0.308,0.463,0.862,0.695,1.178,0.695l0.153-0.027l0.112-0.254l-0.016-0.235v-0.005l-0.005-0.299l0.015-0.205
				c0.016-0.119,0.077-0.323,0.166-0.403c-0.015,0.085-0.038,0.166-0.059,0.26c-0.041,0.139-0.063,0.274-0.069,0.422v0.037
				c0,0.16,0.022,0.332,0.063,0.482l0.077,0.412h-0.492l-0.049,0.047v0.363l0.049,0.049h0.65l0.036-0.022l0.005-0.04l-0.016-0.088
				l0.038-0.173l0.054-0.06l0.158,0.152l0.01,0.112l-0.038,0.069l-0.089-0.095l-0.112,0.074l-0.003,0.044l0.043,0.024h0.021
				c-0.143,0.375-0.005,0.472-0.395,1.15l0.007,0.056l0.112,0.134l0.036,0.015l0.033-0.018c0.107-0.134,0.171-0.221,0.204-0.264
				l0.033,0.039c0.003,0.091-0.112,0.256-0.112,0.376l0.036,0.088l0.102,0.03h0.021l0.041-0.027l0.118-0.293l0.005-0.006
				l0.021-0.126l0.025-0.071L80.2,36.24l0,0l0.015,0.084c0,0.137-0.066,0.357-0.071,0.457l0.043,0.053l-0.008,0.007
				c0.008,0.011,0.087,0.092,0.242,0.092l0.115-0.013l0.112-0.185l-0.005-0.177v-0.15l0.061,0.126l0.061,0.319l0.016,0.024
				l0.158,0.063l0.183-0.137v-0.007c-0.018-0.161-0.051-0.219-0.071-0.308V36.48l0.058,0.075c0.074,0.151,0.211,0.285,0.359,0.29
				l0.082-0.016l0.028-0.039l0.013-0.203l-0.007-0.024c-0.125-0.211-0.296-0.38-0.401-0.58c-0.117-0.213-0.418-0.771-0.434-0.816
				v-0.013l-0.01-0.015l0,0l0.025,0.022h0.577l0.041-0.049v-0.363l-0.041-0.047h-0.457l0.074-0.45l0.031-0.339l-0.007-0.177
				c-0.013-0.149-0.039-0.282-0.08-0.424c-0.031-0.104-0.061-0.161-0.079-0.239c0.12,0.055,0.207,0.306,0.232,0.439
				c0.03,0.153,0.021,0.333,0.025,0.503v0.011l-0.005,0.205l0.071,0.154l0.051,0.124l0.139,0.021
				c0.301-0.002,0.872-0.253,1.167-0.74c0.173-0.297,0.281-0.834,0.281-1.201C82.787,32.464,82.771,32.363,82.743,32.289z
				 M80.109,31.948l-0.031,0.021l-0.035-0.021l0.035-0.024L80.109,31.948z M80.624,34.999l-0.086,0.094l-0.046-0.07l0.01-0.111
				l0.125-0.13l0.079,0.276L80.624,34.999z"/>
			<path d="M121.786,41.004l-0.136-0.084l-0.116,0.104c-0.357,0.939-0.87,0.95-2.423,0.95h-0.145c-0.124,0-0.24,0-0.379,0
				c-1.111,0-2.193,0.013-3.135,0.013c-1.24,0-2.242-0.005-2.793-0.009c0.505-0.491,0.212-1.519,0.195-1.686
				c-0.051-0.251-0.068-2.32-0.094-2.497c-0.014-0.195,0.219-2.879,0.219-2.879l0.063-0.557c0,0,0.295-1.376-0.482-2.399
				c-0.771-1.01-0.533-1.753-0.533-1.753c0.5-0.12,1.012-0.154,1.453-0.154c0.221,0,0.43,0.007,0.615,0.019
				c0.172,0.005,0.326,0.014,0.454,0.014c0.3,0,0.441-0.042,0.343-0.215c-0.211-0.356-0.188-0.446-0.103-0.446l0.249,0.113
				c0.077,0.115,0.878,0.541,2.65,0.923l0.016,0.005c0.098,0-0.105-0.308-0.207-0.463c0.26,0.284,1.199,0.755,1.389,0.755
				l0.021-0.039c-0.109-0.231-0.018-0.475-0.018-0.475c0.428,0.475,1.235,0.661,1.235,0.661s0.079-0.595-0.026-2.252
				c-0.119-1.66-1.617-3.665-1.617-3.665c-0.014-0.104-1.067-1.385-2.172-2.463c-0.672-0.648-1.42-1.219-1.791-1.495
				c-1.027-0.768-3.35-1.579-4.859-1.625l-0.126-0.003c-1.535,0-4.068,0.75-5.956,1.31c-0.324,0.101-0.609,0.142-0.854,0.142
				c-1.236,0-1.58-1.063-1.777-1.854c-0.232-0.965,0.513-3.877,0.513-3.877c-0.022-0.125,0.729-2.678,0.767-2.775
				c0.01-0.034,0.104-0.448,0.104-1.041c0-0.305,0.021-0.649-0.104-1.014c-0.373-1.101-1.688-1.029-2.043-1.055h-0.031
				c-0.362,0-0.846,0.166-1.049,0.533c-0.198,0.386-1.117,0.736-1.117,0.736c-1.366,0.459-0.926,0.751-0.926,0.751
				s0.039,0.04,0.25,0.04l0.273-0.018l0.141-0.005c0.498,0,1.323,0.228,1.323,0.228c0.729,0.462,0.772,1.346,0.75,1.751
				c-0.036,0.396-0.786,1.675-0.786,1.675c-1.464,1.722-1.826,4.688-1.832,4.734c-0.132-1.149-0.226-1.927-0.24-2.042l-0.025-0.213
				l-0.215,0.003l-15.212,0.075c0.056-1.688-1.926-0.621-1.926-0.621s-1.16-0.074-1.77,0.641l-2.124,0.01v0.002h-0.194l-0.028,0.207
				c-0.064,0.469-0.12,0.917-0.176,1.358c-0.132,0.093-0.316,0.213-0.569,0.378l-0.4-0.042c0.086-0.57-0.465-2.863-0.465-2.863
				l-0.02-1.363c0,0,1.303-0.091,2.247-0.033c0.479,0.027,0.836,0.06,0.925,0.033c0.362-0.033,0.434-0.351,0.521-0.501
				c0.082-0.154,0.041-0.392,0.051-0.543c0.015-0.157-0.716-0.799-0.793-0.876c-0.522-0.556-0.702-0.473-1.094-1.088
				c-0.26-0.405-1.406-0.755-1.354-0.76c0.048-0.007,0.457-0.754,0.497-1.103c0.036-0.344-0.064-0.927-0.143-1.151
				C74.6,8.952,74.35,8.944,74.35,8.944c-0.393,0.055-1.147,1.256-1.147,1.256l-0.168-0.008l-0.312-0.297
				c0,0-0.336-0.438-0.495-0.594c-0.416-0.392-0.704-0.574-0.704-0.574s-0.429,0.124-0.449,1.495
				c-0.028,1.368,0.612,1.832,0.612,1.832l0.023,0.282c-0.793,0.283-0.757,2.942-0.757,2.942l-0.011,0.018
				c0,0.188-0.367,0.794-0.913,1.271c-0.148,0.187,0.081-0.197-0.893,1.001c-0.25,0.311-1.124,1.422-2.157,2.425
				c-0.923,0.889-2.234,1.774-3.413,2.471c-2.854,1.695-3.631,4.178-3.818,5.222c-0.191,1.038-0.171,5.999-0.171,5.999
				c-0.022,0.305,0.008,1.313-0.153,2.608c-0.112,0.885-0.237,1.961-0.836,2.812c-1.464,2.094-7.6,2.028-9.069,2.198
				c-1.327,0.158-1.301,1.251-1.283,1.467l-0.033,0.008l0.015,0.069l0.023-0.002v0.002h59.485l0.058-0.085
				c0.116-0.161,0.26-0.316,0.397-0.451c-0.123-0.001-0.238-0.006-0.354-0.009l0.079-0.081c0.187-0.233,0.389-0.361,0.649-0.372
				l0.303-0.014c0.135,0,0.271,0.005,0.408,0.014l-0.086,0.209l-0.127,0.269h-0.287c0.233,0.065,0.483,0.141,0.73,0.218
				l-0.277,0.218l-0.141,0.085h11.229c0.01,0,1.489-0.22,1.489-1.801v-0.021v-0.013L121.786,41.004z M65.523,38.343
				c-0.039,0.537-0.354,2.794-0.393,3.196c-0.023,0.17,0.003,0.315,0.023,0.437h-4.986c1.847-0.72,2.482-3.941,2.482-3.941
				c0.398-2.198,2.3-2.883,2.698-2.631c0.166,0.102,0.205,0.598,0.194,1.103C65.531,37.427,65.523,38.343,65.523,38.343z
				 M73.212,23.566c0.204-0.309,0.38-0.668,0.595-0.934c0.222-0.266,0.829-0.84,1.191-1.179c-0.255,2.448-0.378,4.46-0.423,6.03
				c-0.449-0.685-0.949-1.336-0.969-1.396l-1.002-1.488C72.585,24.49,72.833,24.156,73.212,23.566z M83.506,41.975h-7.738
				c-0.229-0.309-0.803-0.781-1.196-0.916c-0.446-0.143-5.063,0.183-5.063,0.183c-0.745,0.025-1.211-0.146-1.458-0.48
				c-0.541-0.712-0.164-2.981-0.146-3.262c0.018-0.301,0.222-2.183,0.296-2.465c0.074-0.284,0.482-2.643,0.62-3.077
				c0.235-0.737,0.117-1.668,0.117-1.668c-0.079-0.459-0.275-0.459-0.295-0.709c-0.031-0.25,0.571-1.084,0.571-1.084l1.051-1.385
				l0.778-0.895c0.247-0.326,0.477,0.098,0.477,0.098l2.117,2.106c-0.344,0.263-0.438-0.016-0.576,0.079
				c-0.28,0.184,0.252,0.741,0.148,0.843c-0.168,0.178-0.454-0.518-0.561-0.396c-0.173,0.191,0.091,0.882,0.413,1.012
				c0.684,0.284,1.168,0.248,1.505,0.08c0.025,1.215,0.094,1.825,0.094,1.844c1.28,7.713,7.177,9.619,10.01,10.09h-1.164V41.975z
				 M75.128,31.81c0-0.014-0.082-0.74-0.1-2.201c0.178-0.274,0.237-0.584,0.23-0.74c-0.005-0.149-0.097-0.371-0.225-0.614
				c0.035-2.276,0.232-5.668,0.854-10.263h0.038h4.02c0.036,0.024,0.066,0.043,0.097,0.076c0.263,0.243,0.237,0.694,0.237,0.694
				l0.554-0.553l-0.082,0.553c0.368-0.175,0.556-0.496,0.638-0.771H96.17c0.174,1.466,1.245,10.872,0.758,14.014
				c-0.623,3.957-2.414,9.261-10.729,9.655C85.82,41.659,76.753,41.596,75.128,31.81z M103.885,41.004c0,0-0.748-0.084-1.586-0.084
				c-0.363,0-0.738,0.013-1.081,0.055c-0.766,0.111-1.099,0.661-1.235,1.001H98.66H87.926c8.444-1.088,9.494-7.585,9.842-9.811
				c0.293-1.918,0.045-5.88-0.261-9.19c1.362,3.073,3.052,4.529,3.052,4.529c0.39,0.665,2.696,1.954,3.265,2.311
				c0.39,0.248,0.774,0.322,1.094,0.322c0.519,0,0.885-0.19,0.885-0.19c0.681,0.808,1.28,2.364,1.298,2.446
				c0.188,0.522,0.039,1.752,0.022,1.844c-0.022,0.209-1.177,2.823-1.177,2.823s-1.528,3.133-1.67,3.423
				C104.15,40.758,103.885,41.004,103.885,41.004z M111.313,38.809c0,0.137-0.188,1.031-0.188,1.031s-0.229,0.707-0.288,1.021
				c-0.052,0.264-0.15,0.277-0.178,0.277h-0.008l-0.127-0.01c0,0-0.285-0.125-1.278-0.125c-0.313,0-0.701,0.008-1.173,0.042
				c-1.098,0.085-1.563,0.648-1.729,0.929h-0.576c0.239-0.362,0.332-1.098,0.332-1.194c-0.011-0.511,1.266-3.491,1.287-3.564
				c0.014-0.056,0.965-2.088,1.033-2.241c0.242-0.507,0.775-0.9,0.709-1.446c-0.148-1.094-0.109-2.729-0.109-2.729
				c0.379,0.175,0.924,1.03,1.388,1.474c0.452,0.456,0.802,2.382,0.802,2.382C111.322,35.003,111.313,38.809,111.313,38.809z
				 M107.52,43.183l0.125,0.033c0.308,0,1.058-0.22,1.229-0.274l0.209-0.094h-1.354L107.52,43.183z"/>
			<path d="M85.525,54.656c0-0.129-0.101-0.238-0.217-0.238c-0.125,0-0.222,0.109-0.222,0.238c0,0.131,0.097,0.235,0.222,0.235
				C85.426,54.892,85.525,54.787,85.525,54.656z"/>
			<path d="M84.959,54.824c0-0.132-0.097-0.233-0.221-0.233c-0.121,0-0.217,0.102-0.217,0.233c0,0.134,0.096,0.231,0.217,0.231
				C84.862,55.056,84.959,54.958,84.959,54.824z"/>
			<path d="M83.016,19.468l-0.245-0.64c-0.046-0.226-0.092-0.442-0.143-0.665c-0.051,0.222-0.097,0.439-0.148,0.662l-0.255,0.629
				l0.005,0.019l0.329-0.198l-0.033,0.396H82.7l-0.021-0.396l0.334,0.201L83.016,19.468z"/>
			<path d="M89.643,19.472l-0.248-0.635c-0.051-0.222-0.097-0.442-0.141-0.667c-0.049,0.222-0.102,0.445-0.152,0.664l-0.252,0.633
				l0.01,0.013l0.315-0.195l-0.028,0.396h0.172l-0.016-0.396l0.331,0.204L89.643,19.472z"/>
			<path d="M95.54,19.468l-0.244-0.64c-0.046-0.226-0.094-0.442-0.146-0.665c-0.053,0.222-0.098,0.439-0.147,0.662l-0.255,0.629
				l0.01,0.019l0.318-0.198l-0.03,0.396h0.171l-0.011-0.396l0.326,0.201L95.54,19.468z"/>
			<path d="M96.518,25.685l-0.328-0.601c-0.069-0.214-0.144-0.425-0.223-0.643c-0.023,0.225-0.046,0.453-0.066,0.68l-0.17,0.659
				l0.013,0.009l0.29-0.232l0.025,0.396l0.172-0.025l-0.071-0.388l0.358,0.158V25.685z"/>
			<polygon points="95.93,32.264 95.82,32.795 95.988,32.82 96.032,32.275 			"/>
			<path d="M95.967,32.38l-0.418,0.187l-0.005-0.017l0.331-0.601c0.076-0.209,0.152-0.419,0.234-0.635
				c0.016,0.226,0.037,0.451,0.051,0.676l0.174,0.662l-0.01,0.011L95.967,32.38z"/>
			<polygon points="93.454,37.735 93.09,38.138 93.223,38.24 93.536,37.797 			"/>
			<path d="M93.427,37.852l-0.446-0.05v-0.02l0.584-0.343c0.177-0.146,0.348-0.29,0.525-0.437c-0.098,0.203-0.193,0.415-0.291,0.612
				l-0.191,0.655l-0.01,0.01L93.427,37.852z"/>
			<polygon points="88.352,40.472 87.82,40.583 87.867,40.748 88.387,40.576 			"/>
			<path d="M88.266,40.554l-0.334-0.311l0.01-0.01l0.677,0.066c0.231-0.013,0.456-0.027,0.675-0.039
				c-0.189,0.104-0.395,0.214-0.594,0.321l-0.541,0.413h-0.016L88.266,40.554z"/>
			<polygon points="83.62,40.46 84.128,40.653 84.179,40.487 83.648,40.359 			"/>
			<path d="M83.735,40.436l0.123,0.441l-0.015,0.008l-0.536-0.42c-0.205-0.106-0.398-0.219-0.597-0.328
				c0.225,0.015,0.451,0.033,0.678,0.045l0.673-0.064l0.013,0.012L83.735,40.436z"/>
			<polygon points="78.604,37.511 78.925,37.948 79.058,37.831 78.683,37.441 			"/>
			<path d="M78.711,37.557l-0.136,0.438l-0.018-0.006l-0.224-0.646c-0.109-0.198-0.219-0.395-0.327-0.597
				c0.179,0.137,0.362,0.272,0.541,0.407l0.612,0.313l0.002,0.014L78.711,37.557z"/>
			<polygon points="75.962,32.297 76.005,32.843 76.176,32.813 76.069,32.282 			"/>
			<path d="M76.033,32.399l-0.352,0.295l-0.008-0.015l0.148-0.671c0.018-0.218,0.033-0.446,0.046-0.672
				c0.079,0.212,0.166,0.421,0.245,0.63l0.344,0.591v0.01L76.033,32.399z"/>
			<path d="M76.278,25.803l-0.193-0.653c-0.023-0.228-0.051-0.455-0.079-0.677c-0.069,0.213-0.138,0.433-0.209,0.649l-0.311,0.606
				l0.007,0.013l0.342-0.17l-0.067,0.391l0.171,0.018l0.023-0.396l0.306,0.232L76.278,25.803z"/>
			<path d="M77.13,19.472l-0.25-0.635c-0.046-0.222-0.097-0.442-0.14-0.667c-0.048,0.222-0.1,0.445-0.151,0.664l-0.257,0.633
				l0.01,0.013l0.326-0.19l-0.033,0.392h0.168l-0.021-0.396l0.334,0.204L77.13,19.472z"/>
			<path d="M85.949,55.938l0.076-0.204c-0.088-0.37-0.397-0.644-0.771-0.644c-0.439,0-0.792,0.375-0.792,0.84
				c0,0.47,0.352,0.848,0.792,0.848c0.372,0,0.683-0.274,0.765-0.636L85.949,55.938z"/>
			<path d="M87.918,50.065c0.111,0,0.199-0.09,0.199-0.208c0-0.116-0.088-0.211-0.199-0.211c-0.107,0-0.199,0.095-0.199,0.211
				C87.719,49.974,87.811,50.065,87.918,50.065z"/>
			<path d="M88.461,50.251c0.114,0,0.196-0.098,0.196-0.217c0-0.115-0.082-0.204-0.196-0.204c-0.109,0-0.195,0.089-0.195,0.204
				C88.266,50.155,88.352,50.251,88.461,50.251z"/>
			<path d="M86.928,50.709c0.11,0,0.199-0.095,0.199-0.208c0-0.119-0.089-0.209-0.199-0.209c-0.105,0-0.195,0.09-0.195,0.209
				C86.73,50.615,86.82,50.709,86.928,50.709z"/>
			<path d="M86.829,51.234c0.108,0,0.198-0.091,0.198-0.207c0-0.122-0.09-0.21-0.198-0.21c-0.11,0-0.194,0.089-0.194,0.21
				C86.635,51.143,86.719,51.234,86.829,51.234z"/>
			<path d="M88.885,50.668c0.112,0,0.201-0.091,0.201-0.208s-0.089-0.207-0.201-0.207c-0.109,0-0.193,0.09-0.193,0.207
				C88.689,50.577,88.773,50.668,88.885,50.668z"/>
			<path d="M88.928,51.173c0.109,0,0.193-0.091,0.193-0.211c0-0.112-0.084-0.208-0.193-0.208c-0.111,0-0.195,0.095-0.195,0.208
				C88.73,51.082,88.814,51.173,88.928,51.173z"/>
			<path d="M88.581,52.163c0.114,0,0.198-0.093,0.198-0.21c0-0.119-0.084-0.21-0.198-0.21c-0.108,0-0.194,0.092-0.194,0.21
				C88.387,52.071,88.473,52.163,88.581,52.163z"/>
			<path d="M88.078,52.323c0.109,0,0.195-0.091,0.195-0.21c0-0.118-0.086-0.209-0.195-0.209c-0.107,0-0.196,0.092-0.196,0.209
				C87.882,52.232,87.971,52.323,88.078,52.323z"/>
			<path d="M86.346,51.395c0.113,0,0.195-0.09,0.195-0.208c0-0.115-0.082-0.21-0.195-0.21c-0.105,0-0.195,0.095-0.195,0.21
				C86.15,51.305,86.238,51.395,86.346,51.395z"/>
			<path d="M85.837,51.471c0.112,0,0.204-0.089,0.204-0.205c0-0.115-0.092-0.211-0.204-0.211c-0.103,0-0.19,0.096-0.19,0.211
				C85.646,51.382,85.734,51.471,85.837,51.471z"/>
			<path d="M86.995,51.801c0.106,0,0.192-0.096,0.192-0.212c0-0.117-0.086-0.208-0.192-0.208c-0.112,0-0.199,0.091-0.199,0.208
				C86.796,51.705,86.883,51.801,86.995,51.801z"/>
			<path d="M87.492,52.243c0.113,0,0.201-0.095,0.201-0.211c0-0.119-0.088-0.209-0.201-0.209c-0.107,0-0.196,0.09-0.196,0.209
				C87.296,52.149,87.385,52.243,87.492,52.243z"/>
			<path d="M87.092,52.705c0.111,0,0.198-0.09,0.198-0.21c0-0.116-0.087-0.208-0.198-0.208c-0.107,0-0.199,0.092-0.199,0.208
				C86.893,52.615,86.984,52.705,87.092,52.705z"/>
			<path d="M86.867,53.192c0.117,0,0.197-0.093,0.197-0.21c0-0.12-0.08-0.209-0.197-0.209c-0.107,0-0.196,0.089-0.196,0.209
				C86.671,53.098,86.76,53.192,86.867,53.192z"/>
			<path d="M86.443,53.43c0.111,0,0.199-0.092,0.199-0.209s-0.088-0.212-0.199-0.212c-0.104,0-0.193,0.095-0.193,0.212
				C86.25,53.339,86.339,53.43,86.443,53.43z"/>
			<ellipse cx="85.943" cy="53.219" rx="0.199" ry="0.211"/>
			<path d="M85.454,53.211c0.114,0,0.202-0.093,0.202-0.212s-0.088-0.211-0.202-0.211c-0.104,0-0.194,0.093-0.194,0.211
				S85.35,53.211,85.454,53.211z"/>
			<path d="M85.197,52.727c0.111,0,0.195-0.095,0.195-0.212c0-0.115-0.084-0.206-0.195-0.206C85.09,52.309,85,52.4,85,52.515
				C85,52.632,85.09,52.727,85.197,52.727z"/>
			<path d="M85.22,52.201c0.112,0,0.196-0.092,0.196-0.207c0-0.12-0.084-0.212-0.196-0.212c-0.107,0-0.199,0.092-0.199,0.212
				C85.021,52.11,85.112,52.201,85.22,52.201z"/>
			<path d="M85.416,51.758c0.113,0,0.201-0.091,0.201-0.209c0-0.115-0.088-0.208-0.201-0.208c-0.105,0-0.196,0.093-0.196,0.208
				C85.22,51.667,85.311,51.758,85.416,51.758z"/>
			<path d="M83.746,51.496c0.114,0,0.199-0.093,0.199-0.208c0-0.117-0.084-0.21-0.199-0.21c-0.107,0-0.199,0.093-0.199,0.21
				C83.547,51.404,83.638,51.496,83.746,51.496z"/>
			<path d="M83.243,51.578c0.112,0,0.196-0.096,0.196-0.212s-0.084-0.208-0.196-0.208c-0.109,0-0.196,0.092-0.196,0.208
				S83.134,51.578,83.243,51.578z"/>
			<path d="M84.495,52.807c0.107,0,0.194-0.093,0.194-0.21c0-0.118-0.087-0.209-0.194-0.209c-0.112,0-0.199,0.091-0.199,0.209
				C84.296,52.714,84.383,52.807,84.495,52.807z"/>
			<path d="M84.271,53.288c0.112,0,0.196-0.091,0.196-0.207c0-0.122-0.084-0.213-0.196-0.213s-0.199,0.092-0.199,0.213
				C84.072,53.198,84.159,53.288,84.271,53.288z"/>
			<path d="M83.843,53.531c0.117,0,0.204-0.092,0.204-0.208c0-0.117-0.087-0.212-0.204-0.212c-0.103,0-0.194,0.095-0.194,0.212
				C83.648,53.44,83.74,53.531,83.843,53.531z"/>
			<path d="M83.342,53.531c0.112,0,0.199-0.092,0.199-0.208c0-0.117-0.086-0.212-0.199-0.212c-0.104,0-0.199,0.095-0.199,0.212
				C83.144,53.44,83.238,53.531,83.342,53.531z"/>
			<path d="M82.858,53.31c0.114,0,0.198-0.094,0.198-0.212c0-0.115-0.084-0.208-0.198-0.208c-0.105,0-0.197,0.093-0.197,0.208
				C82.662,53.216,82.753,53.31,82.858,53.31z"/>
			<path d="M82.598,52.827c0.117,0,0.193-0.095,0.193-0.207c0-0.124-0.077-0.214-0.193-0.214c-0.107,0-0.197,0.091-0.197,0.214
				C82.401,52.733,82.491,52.827,82.598,52.827z"/>
			<path d="M82.616,52.305c0.115,0,0.204-0.095,0.204-0.217c0-0.112-0.089-0.208-0.204-0.208c-0.107,0-0.197,0.095-0.197,0.208
				C82.419,52.21,82.508,52.305,82.616,52.305z"/>
			<path d="M82.822,51.86c0.112,0,0.194-0.095,0.194-0.211s-0.082-0.209-0.194-0.209c-0.107,0-0.202,0.093-0.202,0.209
				C82.621,51.765,82.715,51.86,82.822,51.86z"/>
			<ellipse cx="84.23" cy="51.568" rx="0.196" ry="0.211"/>
			<ellipse cx="84.473" cy="52.033" rx="0.196" ry="0.21"/>
			<path d="M87.984,55.964c0.064-0.369-0.164-0.707-0.512-0.76c-0.347-0.061-0.673,0.195-0.738,0.557
				c-0.063,0.364,0.16,0.705,0.511,0.763C87.589,56.576,87.92,56.33,87.984,55.964z"/>
			<path d="M87.706,55.077c0.114,0.021,0.214-0.055,0.233-0.17c0.025-0.113-0.039-0.222-0.149-0.244
				c-0.104-0.019-0.214,0.052-0.233,0.168C87.529,54.948,87.602,55.056,87.706,55.077z"/>
			<path d="M87.198,55.056c0.11,0.024,0.21-0.053,0.235-0.167c0.024-0.112-0.047-0.219-0.156-0.243
				c-0.104-0.021-0.207,0.055-0.231,0.166C87.021,54.928,87.092,55.036,87.198,55.056z"/>
			<path d="M88.184,56.503c0.111,0.023,0.215-0.051,0.234-0.166c0.02-0.113-0.041-0.221-0.152-0.244
				c-0.104-0.021-0.213,0.051-0.229,0.168C88.01,56.376,88.078,56.488,88.184,56.503z"/>
			<path d="M87.872,56.937c0.112,0.023,0.214-0.052,0.233-0.168c0.021-0.114-0.041-0.223-0.152-0.245
				c-0.105-0.021-0.211,0.053-0.234,0.173C87.698,56.808,87.768,56.916,87.872,56.937z"/>
			<path d="M87.413,57.09c0.106,0.023,0.209-0.049,0.229-0.165c0.025-0.114-0.041-0.221-0.149-0.245
				c-0.107-0.021-0.212,0.056-0.232,0.17C87.234,56.963,87.305,57.073,87.413,57.09z"/>
			<path d="M86.918,56.993c0.109,0.023,0.209-0.052,0.234-0.167c0.021-0.108-0.041-0.223-0.152-0.242
				c-0.107-0.023-0.21,0.05-0.234,0.168C86.742,56.865,86.813,56.974,86.918,56.993z"/>
			<path d="M86.484,56.683c0.111,0.022,0.209-0.053,0.233-0.166c0.023-0.114-0.043-0.226-0.151-0.247
				c-0.105-0.019-0.213,0.056-0.232,0.17C86.313,56.553,86.377,56.661,86.484,56.683z"/>
			<path d="M86.32,56.157c0.113,0.022,0.213-0.049,0.234-0.167c0.023-0.116-0.046-0.222-0.152-0.245
				c-0.106-0.021-0.215,0.052-0.234,0.167C86.148,56.029,86.217,56.136,86.32,56.157z"/>
			<path d="M86.443,55.649c0.106,0.023,0.209-0.055,0.234-0.167c0.021-0.117-0.041-0.224-0.152-0.244
				c-0.107-0.022-0.209,0.053-0.234,0.167C86.268,55.523,86.339,55.625,86.443,55.649z"/>
			<path d="M86.727,55.251c0.11,0.023,0.213-0.052,0.234-0.166c0.023-0.114-0.038-0.222-0.148-0.246
				c-0.107-0.019-0.215,0.053-0.232,0.168C86.551,55.124,86.622,55.229,86.727,55.251z"/>
			<path d="M88.127,55.447c0.107,0.023,0.215-0.053,0.234-0.167c0.025-0.113-0.041-0.224-0.152-0.246
				c-0.107-0.019-0.212,0.055-0.232,0.171C87.951,55.317,88.018,55.426,88.127,55.447z"/>
			<path d="M88.273,55.947c0.113,0.022,0.207-0.053,0.235-0.163c0.021-0.116-0.044-0.224-0.153-0.245
				c-0.106-0.023-0.209,0.053-0.233,0.167C88.102,55.82,88.162,55.928,88.273,55.947z"/>
		</g>
	</g>
	<g>
		<path d="M32.677,83.888L31.3,79.359h-6.94l-1.385,4.529h-4.347l6.719-19.112h4.936l6.744,19.112H32.677z M30.336,75.975
			c-1.276-4.106-1.994-6.428-2.157-6.968c-0.16-0.538-0.273-0.963-0.344-1.275c-0.286,1.109-1.104,3.858-2.461,8.243H30.336z"/>
		<path d="M48.745,83.888l-0.536-1.86h-0.206c-0.426,0.681-1.034,1.2-1.809,1.564c-0.783,0.376-1.673,0.556-2.675,0.556
			c-1.707,0-2.997-0.457-3.864-1.367c-0.87-0.919-1.302-2.237-1.302-3.954v-9.493h3.97v8.503c0,1.051,0.188,1.838,0.561,2.363
			c0.373,0.524,0.969,0.787,1.786,0.787c1.112,0,1.915-0.371,2.41-1.113c0.492-0.741,0.743-1.973,0.743-3.69v-6.85h3.968v14.556
			L48.745,83.888L48.745,83.888z"/>
		<path d="M65.633,79.568c0,1.494-0.518,2.631-1.553,3.408c-1.041,0.782-2.588,1.171-4.654,1.171c-1.061,0-1.964-0.068-2.711-0.21
			c-0.748-0.147-1.443-0.358-2.096-0.635v-3.276c0.737,0.346,1.568,0.636,2.494,0.871c0.923,0.233,1.739,0.353,2.44,0.353
			c1.444,0,2.163-0.417,2.163-1.252c0-0.313-0.094-0.565-0.286-0.761c-0.194-0.196-0.521-0.417-0.99-0.665
			c-0.469-0.246-1.094-0.536-1.877-0.864c-1.122-0.469-1.943-0.904-2.466-1.304c-0.528-0.396-0.908-0.855-1.145-1.374
			c-0.24-0.516-0.362-1.151-0.362-1.908c0-1.292,0.504-2.292,1.507-2.999c1.002-0.71,2.425-1.064,4.264-1.064
			c1.752,0,3.461,0.383,5.119,1.146l-1.199,2.865c-0.729-0.313-1.413-0.567-2.045-0.77c-0.635-0.199-1.28-0.298-1.938-0.298
			c-1.173,0-1.76,0.316-1.76,0.949c0,0.358,0.188,0.666,0.566,0.926s1.204,0.646,2.482,1.159c1.134,0.459,1.971,0.89,2.499,1.288
			c0.528,0.399,0.921,0.86,1.173,1.382C65.508,78.226,65.633,78.847,65.633,79.568z"/>
		<path d="M74.646,80.987c0.694,0,1.525-0.15,2.5-0.455v2.954c-0.989,0.446-2.204,0.662-3.647,0.662
			c-1.589,0-2.744-0.398-3.468-1.201c-0.724-0.803-1.086-2.005-1.086-3.612v-7.02h-1.903v-1.68l2.188-1.329l1.145-3.071h2.54v3.099
			h4.076v2.981h-4.076v7.02c0,0.564,0.156,0.98,0.475,1.25C73.705,80.851,74.126,80.987,74.646,80.987z"/>
		<path d="M87.605,69.058c0.537,0,0.984,0.042,1.34,0.118l-0.299,3.726c-0.321-0.085-0.711-0.131-1.174-0.131
			c-1.265,0-2.254,0.326-2.958,0.977c-0.709,0.653-1.063,1.563-1.063,2.735v7.406h-3.971V69.333h3.009l0.584,2.447h0.197
			c0.449-0.815,1.058-1.474,1.828-1.972C85.867,69.309,86.704,69.058,87.605,69.058z"/>
		<path d="M99.909,83.888l-0.772-1.979h-0.099c-0.672,0.847-1.358,1.426-2.069,1.752c-0.705,0.329-1.625,0.484-2.765,0.484
			c-1.399,0-2.502-0.397-3.304-1.196c-0.801-0.796-1.2-1.936-1.2-3.409c0-1.543,0.538-2.683,1.62-3.417
			c1.08-0.733,2.707-1.14,4.886-1.219l2.532-0.077v-0.637c0-1.477-0.758-2.214-2.268-2.214c-1.162,0-2.533,0.352-4.104,1.056
			l-1.315-2.685c1.675-0.878,3.534-1.314,5.577-1.314c1.948,0,3.447,0.426,4.488,1.276c1.041,0.852,1.563,2.146,1.563,3.881v9.698
			L99.909,83.888L99.909,83.888z M98.738,77.149l-1.54,0.05c-1.152,0.035-2.015,0.244-2.578,0.625
			c-0.562,0.381-0.845,0.963-0.845,1.744c0,1.12,0.641,1.682,1.927,1.682c0.92,0,1.653-0.268,2.205-0.797
			c0.554-0.528,0.831-1.23,0.831-2.106V77.149z"/>
		<path d="M129.561,83.888l-0.769-1.979h-0.104c-0.666,0.847-1.356,1.426-2.065,1.752c-0.703,0.329-1.626,0.484-2.765,0.484
			c-1.397,0-2.5-0.397-3.299-1.196c-0.803-0.796-1.205-1.936-1.205-3.409c0-1.543,0.541-2.683,1.619-3.417
			c1.079-0.733,2.713-1.14,4.893-1.219l2.525-0.077v-0.637c0-1.477-0.757-2.214-2.27-2.214c-1.16,0-2.527,0.352-4.104,1.056
			l-1.313-2.685c1.681-0.878,3.532-1.314,5.573-1.314c1.957,0,3.451,0.426,4.492,1.276c1.043,0.852,1.565,2.146,1.565,3.881v9.698
			L129.561,83.888L129.561,83.888z M128.391,77.149l-1.535,0.05c-1.156,0.035-2.019,0.244-2.582,0.625s-0.844,0.963-0.844,1.744
			c0,1.12,0.641,1.682,1.924,1.682c0.922,0,1.662-0.268,2.209-0.797c0.553-0.528,0.828-1.23,0.828-2.106V77.149z"/>
		<path d="M149.134,83.888h-3.974V75.39c0-1.051-0.188-1.84-0.559-2.364c-0.379-0.524-0.97-0.789-1.785-0.789
			c-1.112,0-1.912,0.373-2.408,1.114c-0.494,0.742-0.741,1.973-0.741,3.69v6.847h-3.974V69.333h3.035l0.533,1.862h0.219
			c0.446-0.704,1.056-1.236,1.83-1.595c0.777-0.36,1.658-0.542,2.65-0.542c1.693,0,2.979,0.459,3.854,1.375
			c0.877,0.916,1.318,2.238,1.318,3.967L149.134,83.888L149.134,83.888z"/>
		<path d="M24.685,89.727h5.924c2.702,0,4.662,0.38,5.879,1.146c1.223,0.772,1.833,1.987,1.833,3.668
			c0,1.138-0.267,2.065-0.804,2.797c-0.534,0.73-1.243,1.171-2.126,1.314v0.132c1.205,0.269,2.075,0.772,2.609,1.513
			c0.535,0.732,0.8,1.72,0.8,2.943c0,1.733-0.627,3.088-1.879,4.061c-1.256,0.973-2.958,1.456-5.112,1.456h-7.124V89.727z
			 M28.725,97.265h2.343c1.093,0,1.883-0.17,2.376-0.51c0.49-0.345,0.733-0.903,0.733-1.684c0-0.728-0.265-1.25-0.799-1.571
			c-0.532-0.31-1.378-0.473-2.534-0.473h-2.119V97.265z M28.725,100.462v4.965h2.629c1.112,0,1.931-0.214,2.46-0.641
			c0.529-0.423,0.796-1.071,0.796-1.95c0-1.582-1.131-2.374-3.388-2.374H28.725z"/>
		<path d="M51.616,108.758l-0.536-1.865h-0.204c-0.429,0.686-1.031,1.205-1.811,1.574c-0.78,0.37-1.67,0.551-2.673,0.551
			c-1.707,0-2.997-0.453-3.864-1.372c-0.87-0.914-1.303-2.232-1.303-3.952v-9.495h3.971v8.506c0,1.054,0.187,1.838,0.561,2.369
			c0.375,0.521,0.967,0.783,1.783,0.783c1.112,0,1.917-0.37,2.41-1.118c0.495-0.735,0.742-1.965,0.742-3.688v-6.854h3.971v14.561
			H51.616L51.616,108.758z"/>
		<path d="M65.918,93.929c0.536,0,0.984,0.036,1.342,0.115l-0.301,3.724c-0.322-0.084-0.714-0.133-1.174-0.133
			c-1.27,0-2.254,0.333-2.963,0.981c-0.709,0.646-1.062,1.563-1.062,2.73v7.409h-3.968V94.198h3.004l0.587,2.447h0.196
			c0.452-0.813,1.064-1.468,1.832-1.969C64.177,94.177,65.011,93.929,65.918,93.929z"/>
		<path d="M75.742,109.017c-2.343,0-4.174-0.643-5.493-1.938c-1.321-1.293-1.979-3.126-1.979-5.493c0-2.435,0.607-4.328,1.831-5.656
			c1.217-1.337,2.902-2,5.055-2c2.058,0,3.657,0.587,4.805,1.758c1.147,1.176,1.719,2.789,1.719,4.855v1.924h-9.385
			c0.041,1.129,0.373,2.015,1,2.646c0.627,0.63,1.505,0.953,2.632,0.953c0.875,0,1.704-0.095,2.489-0.28
			c0.778-0.178,1.594-0.472,2.443-0.869v3.075c-0.691,0.345-1.433,0.606-2.224,0.774C77.844,108.933,76.88,109.017,75.742,109.017z
			 M75.184,96.756c-0.844,0-1.502,0.263-1.981,0.801c-0.477,0.533-0.75,1.287-0.816,2.271h5.57
			c-0.018-0.984-0.271-1.738-0.765-2.271C76.696,97.018,76.023,96.756,75.184,96.756z"/>
		<path d="M93.572,108.758l-0.771-1.979h-0.104c-0.666,0.847-1.354,1.423-2.061,1.757c-0.71,0.324-1.634,0.481-2.771,0.481
			c-1.398,0-2.497-0.396-3.301-1.195c-0.803-0.802-1.204-1.938-1.204-3.41c0-1.545,0.541-2.683,1.622-3.417
			c1.08-0.731,2.708-1.146,4.887-1.219l2.526-0.079v-0.639c0-1.477-0.758-2.214-2.265-2.214c-1.161,0-2.532,0.351-4.101,1.055
			l-1.318-2.684c1.678-0.87,3.534-1.313,5.572-1.313c1.958,0,3.453,0.424,4.496,1.275c1.041,0.852,1.561,2.146,1.561,3.881v9.699
			H93.572z M92.398,102.017l-1.535,0.054c-1.157,0.029-2.016,0.236-2.578,0.623c-0.566,0.382-0.848,0.961-0.848,1.743
			c0,1.116,0.646,1.684,1.929,1.684c0.916,0,1.655-0.271,2.204-0.8c0.556-0.528,0.828-1.229,0.828-2.107V102.017z"/>
		<path d="M109.6,108.758l-0.533-1.865h-0.209c-0.424,0.686-1.026,1.205-1.807,1.574c-0.785,0.37-1.674,0.551-2.674,0.551
			c-1.708,0-2.996-0.453-3.865-1.372c-0.869-0.914-1.302-2.232-1.302-3.952v-9.495h3.966v8.506c0,1.054,0.192,1.838,0.567,2.369
			c0.368,0.521,0.968,0.783,1.78,0.783c1.113,0,1.914-0.37,2.408-1.118c0.495-0.735,0.742-1.965,0.742-3.688v-6.854h3.973v14.561
			H109.6L109.6,108.758z"/>
		<path d="M134.779,101.454c0,2.374-0.621,4.223-1.869,5.556c-1.249,1.343-2.991,2.008-5.227,2.008
			c-1.394,0-2.629-0.303-3.693-0.916c-1.066-0.61-1.889-1.488-2.461-2.637c-0.571-1.145-0.86-2.48-0.86-4.011
			c0-2.38,0.62-4.228,1.86-5.548c1.24-1.318,2.986-1.978,5.234-1.978c1.4,0,2.633,0.303,3.7,0.908
			c1.065,0.611,1.888,1.484,2.462,2.619C134.5,98.594,134.779,99.923,134.779,101.454z M124.721,101.454
			c0,1.439,0.233,2.529,0.709,3.269c0.475,0.737,1.24,1.106,2.311,1.106c1.061,0,1.82-0.364,2.283-1.103
			c0.468-0.73,0.697-1.822,0.697-3.272c0-1.439-0.231-2.521-0.701-3.242c-0.47-0.72-1.236-1.082-2.307-1.082
			c-1.059,0-1.82,0.358-2.295,1.077C124.951,98.923,124.721,100.002,124.721,101.454z"/>
		<path d="M145.48,97.184h-3.438v11.573h-3.973V97.184h-2.188v-1.918l2.188-1.068v-1.063c0-1.657,0.408-2.866,1.226-3.634
			c0.813-0.765,2.122-1.146,3.918-1.146c1.374,0,2.593,0.207,3.662,0.615l-1.019,2.915c-0.799-0.25-1.537-0.377-2.215-0.377
			c-0.564,0-0.974,0.162-1.224,0.502c-0.249,0.332-0.377,0.76-0.377,1.282v0.905h3.438V97.184L145.48,97.184z"/>
		<path d="M40.015,128.346c0,1.716-0.621,3.066-1.858,4.059c-1.235,0.988-2.954,1.48-5.161,1.48c-2.034,0-3.828-0.374-5.393-1.142
			v-3.749c1.283,0.573,2.373,0.977,3.265,1.211c0.886,0.23,1.703,0.349,2.439,0.349c0.888,0,1.566-0.17,2.038-0.507
			c0.473-0.336,0.71-0.844,0.71-1.513c0-0.375-0.102-0.701-0.313-0.994c-0.208-0.286-0.515-0.571-0.918-0.841
			c-0.402-0.267-1.224-0.694-2.467-1.288c-1.163-0.547-2.035-1.069-2.617-1.577c-0.581-0.505-1.045-1.089-1.394-1.755
			c-0.347-0.668-0.519-1.45-0.519-2.35c0-1.678,0.57-3.002,1.711-3.966s2.719-1.445,4.732-1.445c0.988,0,1.932,0.116,2.833,0.351
			c0.899,0.234,1.839,0.563,2.819,0.988l-1.303,3.138c-1.017-0.413-1.854-0.707-2.52-0.867c-0.664-0.166-1.315-0.247-1.961-0.247
			c-0.762,0-1.348,0.177-1.756,0.53c-0.408,0.356-0.612,0.82-0.612,1.396c0,0.354,0.084,0.668,0.248,0.93
			c0.166,0.268,0.427,0.521,0.788,0.768c0.361,0.251,1.213,0.692,2.561,1.337c1.778,0.85,2.998,1.701,3.657,2.559
			C39.683,126.056,40.015,127.105,40.015,128.346z"/>
		<path d="M48.434,130.728c0.696,0,1.53-0.152,2.504-0.462v2.957c-0.992,0.445-2.209,0.662-3.65,0.662
			c-1.589,0-2.747-0.397-3.468-1.201c-0.727-0.801-1.089-2.004-1.089-3.613v-7.019h-1.897v-1.682l2.186-1.325l1.145-3.073h2.541v3.1
			h4.075v2.98h-4.075v7.019c0,0.568,0.158,0.981,0.474,1.251C47.495,130.591,47.913,130.728,48.434,130.728z"/>
		<path d="M62.797,133.629l-0.765-1.981h-0.107c-0.667,0.847-1.354,1.428-2.063,1.758c-0.707,0.326-1.629,0.48-2.767,0.48
			c-1.4,0-2.497-0.397-3.303-1.195c-0.801-0.797-1.203-1.934-1.203-3.409c0-1.543,0.54-2.687,1.624-3.418
			c1.082-0.731,2.706-1.141,4.887-1.219l2.527-0.078v-0.639c0-1.473-0.757-2.214-2.267-2.214c-1.164,0-2.53,0.349-4.099,1.053
			l-1.318-2.681c1.678-0.872,3.532-1.315,5.575-1.315c1.954,0,3.451,0.427,4.494,1.28c1.038,0.848,1.561,2.141,1.561,3.877v9.701
			H62.797z M61.626,126.885l-1.538,0.047c-1.155,0.038-2.015,0.249-2.581,0.63c-0.562,0.383-0.842,0.965-0.842,1.744
			c0,1.117,0.643,1.684,1.926,1.684c0.921,0,1.655-0.265,2.206-0.798c0.551-0.527,0.829-1.229,0.829-2.109V126.885z"/>
		<path d="M75.059,130.728c0.693,0,1.53-0.152,2.502-0.462v2.957c-0.992,0.445-2.207,0.662-3.645,0.662
			c-1.589,0-2.75-0.397-3.474-1.201c-0.724-0.801-1.086-2.004-1.086-3.613v-7.019h-1.903v-1.682l2.188-1.325l1.147-3.073h2.538v3.1
			h4.076v2.98h-4.076v7.019c0,0.568,0.158,0.981,0.475,1.251C74.12,130.591,74.539,130.728,75.059,130.728z"/>
		<path d="M97.632,129.305c0,1.5-0.521,2.632-1.559,3.41c-1.04,0.785-2.589,1.17-4.654,1.17c-1.063,0-1.961-0.067-2.711-0.208
			c-0.742-0.146-1.442-0.359-2.097-0.634v-3.279c0.74,0.348,1.57,0.632,2.494,0.869c0.927,0.238,1.742,0.354,2.44,0.354
			c1.443,0,2.165-0.418,2.165-1.252c0-0.312-0.097-0.568-0.288-0.767c-0.19-0.189-0.521-0.415-0.989-0.655
			c-0.467-0.254-1.095-0.539-1.873-0.871c-1.121-0.469-1.943-0.902-2.47-1.301c-0.526-0.402-0.907-0.858-1.147-1.375
			c-0.239-0.515-0.356-1.151-0.356-1.909c0-1.293,0.502-2.293,1.505-3.003c1.004-0.7,2.422-1.061,4.266-1.061
			c1.756,0,3.459,0.385,5.113,1.146l-1.195,2.867c-0.727-0.311-1.409-0.57-2.039-0.77c-0.639-0.199-1.283-0.298-1.946-0.298
			c-1.171,0-1.761,0.314-1.761,0.95c0,0.356,0.195,0.663,0.568,0.924c0.379,0.257,1.207,0.646,2.481,1.156
			c1.138,0.463,1.976,0.889,2.502,1.296c0.53,0.396,0.919,0.853,1.171,1.375C97.505,127.964,97.632,128.584,97.632,129.305z"/>
		<path d="M106.643,130.728c0.691,0,1.527-0.152,2.496-0.462v2.957c-0.986,0.445-2.199,0.662-3.644,0.662
			c-1.591,0-2.747-0.397-3.472-1.201c-0.723-0.801-1.088-2.004-1.088-3.613v-7.019H99.04v-1.682l2.187-1.325l1.146-3.073h2.535v3.1
			h4.078v2.98h-4.078v7.019c0,0.568,0.16,0.981,0.479,1.251C105.701,130.591,106.119,130.728,106.643,130.728z"/>
		<path d="M124.82,133.886c-4.528,0-6.797-2.483-6.797-7.457c0-2.477,0.619-4.366,1.854-5.671c1.23-1.304,2.996-1.962,5.296-1.962
			c1.687,0,3.196,0.334,4.532,0.989l-1.17,3.073c-0.628-0.247-1.209-0.456-1.745-0.62c-0.541-0.158-1.078-0.236-1.617-0.236
			c-2.067,0-3.101,1.466-3.101,4.398c0,2.846,1.033,4.274,3.101,4.274c0.767,0,1.47-0.101,2.125-0.312
			c0.65-0.199,1.302-0.521,1.953-0.954v3.396c-0.646,0.411-1.293,0.694-1.948,0.848C126.646,133.811,125.82,133.886,124.82,133.886z
			"/>
		<path d="M142.368,129.305c0,1.5-0.521,2.632-1.558,3.41c-1.035,0.785-2.59,1.17-4.653,1.17c-1.058,0-1.964-0.067-2.708-0.208
			c-0.748-0.146-1.446-0.359-2.1-0.634v-3.279c0.737,0.348,1.573,0.632,2.493,0.869c0.925,0.238,1.74,0.354,2.444,0.354
			c1.439,0,2.162-0.418,2.162-1.252c0-0.312-0.1-0.568-0.288-0.767c-0.19-0.189-0.522-0.415-0.992-0.655
			c-0.467-0.254-1.092-0.539-1.872-0.871c-1.122-0.469-1.941-0.902-2.467-1.301c-0.527-0.402-0.907-0.858-1.146-1.375
			c-0.24-0.515-0.361-1.151-0.361-1.909c0-1.293,0.505-2.293,1.509-3.003c1.001-0.7,2.424-1.061,4.262-1.061
			c1.757,0,3.459,0.385,5.119,1.146l-1.196,2.867c-0.73-0.311-1.412-0.57-2.048-0.77s-1.28-0.298-1.938-0.298
			c-1.17,0-1.756,0.314-1.756,0.95c0,0.356,0.186,0.663,0.563,0.924c0.38,0.257,1.204,0.646,2.48,1.156
			c1.136,0.463,1.97,0.889,2.502,1.296c0.529,0.396,0.916,0.853,1.174,1.375C142.243,127.964,142.368,128.584,142.368,129.305z"/>
		<polygon points="109.669,83.888 107.622,83.888 105.777,83.888 105.777,72.959 105.777,63.403 107.706,63.403 109.669,63.403 
			109.669,73.045 		"/>
		<g>
			<polygon points="116.861,83.888 112.971,83.888 112.971,76.021 112.971,69.394 116.861,69.394 116.861,76.021 			"/>
		</g>
		<path d="M112.805,65.571c0-1.291,0.709-1.94,2.122-1.94c1.419,0,2.123,0.649,2.123,1.94c0,0.615-0.179,1.097-0.53,1.438
			c-0.356,0.343-0.883,0.516-1.593,0.516C113.514,67.524,112.805,66.873,112.805,65.571z"/>
		<g>
			<g>
				<polygon points="115.668,133.638 111.773,133.638 111.773,125.559 111.773,119.142 115.668,119.142 115.668,125.602 				"/>
			</g>
			<path d="M111.598,115.318c0-1.294,0.707-1.941,2.123-1.941c1.418,0,2.123,0.647,2.123,1.941c0,0.619-0.176,1.097-0.527,1.439
				c-0.356,0.342-0.887,0.513-1.596,0.513C112.305,117.27,111.598,116.622,111.598,115.318z"/>
		</g>
		<g>
			<polygon points="83.853,133.638 79.953,133.638 79.953,125.722 79.953,119.142 83.853,119.142 83.853,125.762 			"/>
		</g>
		<path d="M79.777,115.318c0-1.294,0.709-1.941,2.125-1.941c1.418,0,2.122,0.647,2.122,1.941c0,0.619-0.176,1.097-0.528,1.439
			c-0.354,0.342-0.885,0.513-1.594,0.513C80.486,117.27,79.777,116.622,79.777,115.318z"/>
	</g>
	<path d="M164.803,23.551h-35.656h-3.903h-0.591c-0.697,0-1.428,0-2.096,0c-0.141,0-0.147,0-0.302,0c-0.313,0-0.426,0-0.601,0
		c-0.598,0-0.898,0.271-0.898,0.601c0,0.799,0.313,1.157,0.313,1.157l1.998,2.876c0.162,0.19,0.494,0.398,0.76,0.444l0.302,0.015
		c0.206,0,0.331,0,0.524,0h2.097h1.201h0.062h1.135h35.656V140.71l0,0l0.02,3.574c0,2.773-2.041,5.116-4.813,5.116h-4.493h-0.299
		H5.097V37.035H5.093l-0.011-3.281c0-2.771,2.033-5.111,4.807-5.111h4.497h0.3h35.396c0.668,0,1.035,0,1.137,0c0,0,0.021,0,0.057,0
		c0.102,0,0.515,0,1.166,0c0.012,0,0.022,0,0.036,0c0.747,0,1.364,0,2.096,0c0.196,0,0.319,0,0.522,0l0.301-0.015
		c0.271-0.046,0.597-0.253,0.76-0.444l2.004-2.876c0,0,0.306-0.357,0.306-1.157c0-0.328-0.296-0.601-0.893-0.601
		c-0.178,0-0.291,0-0.602,0c-0.153,0-0.161,0-0.301,0c-0.862,0-1.821,0-2.688,0c-0.821,0-1.278,0-1.542,0c-0.868,0,0.331,0-2.359,0
		H14.385v0.015l-4.51-0.015C4.416,23.551,0,28.171,0,33.631v3.405v0.598v111.767v4.792v0.298h155.516v-0.017l4.508,0.017
		c5.463,0,9.871-4.618,9.871-10.078v-3.702v-0.303V28.643V23.55L164.803,23.551L164.803,23.551z"/>
</g>
</svg>
